{
.appVersion = "1231";
copyright = "Copyright © 2019 by Red Hat. All rights reserved.";
customParameters = (
{
name = description;
value = "Copyright (c) 2019 by Red Hat. All rights reserved.";
},
{
name = license;
value = "This Font Software is licensed under the SIL Open Font License, Version 1.1. This license is available with a FAQ at: http://scripts.sil.org/OFL";
},
{
name = licenseURL;
value = "http://scripts.sil.org/OFL";
}
);
date = "2019-04-22 16:21:36 +0000";
designer = "Liz Wetzel, Aaron Williamson, Russ McMullin";
designerURL = "https://www.redhat.com/en/open-source-stories/because-we-had-to";
disablesAutomaticAlignment = 1;
familyName = "Because We Learn";
featurePrefixes = (
{
automatic = 1;
code = "languagesystem DFLT dflt;\012";
name = Languagesystems;
}
);
fontMaster = (
{
alignmentZones = (
"{800, 16}",
"{650, 16}",
"{450, 15}",
"{0, -21}",
"{-200, -16}"
);
ascender = 800;
capHeight = 650;
descender = -200;
id = UUID0;
xHeight = 450;
}
);
glyphs = (
{
glyphname = A;
lastChange = "2019-03-20 22:31:53 +0000";
layers = (
{
hints = (
{
place = "{23, 575}";
type = Stem;
},
{
horizontal = 1;
place = "{-54, 21}";
target = up;
type = BottomGhost;
}
);
layerId = UUID0;
paths = (
{
closed = 1;
nodes = (
"420 105 OFFCURVE",
"475 -54 OFFCURVE",
"535 -54 CURVE SMOOTH",
"579 -54 OFFCURVE",
"598 -17 OFFCURVE",
"598 8 CURVE SMOOTH",
"598 29 OFFCURVE",
"588 51 OFFCURVE",
"576 77 CURVE",
"576 78 OFFCURVE",
"575 79 OFFCURVE",
"415 415 CURVE SMOOTH",
"363 525 LINE SMOOTH",
"332 590 OFFCURVE",
"285 653 OFFCURVE",
"230 653 CURVE SMOOTH",
"158 653 OFFCURVE",
"126 559 OFFCURVE",
"108 475 CURVE SMOOTH",
"84 361 OFFCURVE",
"60 245 OFFCURVE",
"35 131 CURVE SMOOTH",
"28 99 OFFCURVE",
"23 73 OFFCURVE",
"23 51 CURVE SMOOTH",
"23 9 OFFCURVE",
"42 -8 OFFCURVE",
"83 -8 CURVE SMOOTH",
"184 -8 OFFCURVE",
"139 145 OFFCURVE",
"248 162 CURVE SMOOTH",
"283 167 OFFCURVE",
"318 178 OFFCURVE",
"365 190 CURVE",
"370 188 LINE"
);
},
{
closed = 1;
nodes = (
"258 385 LINE SMOOTH",
"278 355 OFFCURVE",
"292 340 OFFCURVE",
"292 329 CURVE SMOOTH",
"292 313 OFFCURVE",
"273 307 OFFCURVE",
"233 290 CURVE",
"253 392 LINE"
);
}
);
width = 629;
}
);
unicode = 0041;
},
{
glyphname = B;
lastChange = "2019-03-20 22:31:53 +0000";
layers = (
{
hints = (
{
horizontal = 1;
place = "{567, 128}";
type = Stem;
}
);
layerId = UUID0;
paths = (
{
closed = 1;
nodes = (
"213 -11 OFFCURVE",
"219 -47 OFFCURVE",
"261 -59 CURVE SMOOTH",
"323 -77 OFFCURVE",
"390 -101 OFFCURVE",
"450 -101 CURVE SMOOTH",
"587 -101 OFFCURVE",
"729 6 OFFCURVE",
"729 147 CURVE SMOOTH",
"729 213 OFFCURVE",
"695 278 OFFCURVE",
"632 316 CURVE SMOOTH",
"605 332 OFFCURVE",
"576 344 OFFCURVE",
"548 360 CURVE",
"587 429 OFFCURVE",
"624 480 OFFCURVE",
"624 542 CURVE SMOOTH",
"624 636 OFFCURVE",
"548 690 OFFCURVE",
"415 690 CURVE SMOOTH",
"355 690 OFFCURVE",
"303 672 OFFCURVE",
"252 672 CURVE SMOOTH",
"232 672 OFFCURVE",
"212 686 OFFCURVE",
"191 686 CURVE SMOOTH",
"136 686 OFFCURVE",
"100 616 OFFCURVE",
"58 573 CURVE SMOOTH",
"38 553 OFFCURVE",
"23 533 OFFCURVE",
"23 508 CURVE SMOOTH",
"23 468 OFFCURVE",
"51 446 OFFCURVE",
"75 446 CURVE SMOOTH",
"98 446 OFFCURVE",
"123 465 OFFCURVE",
"155 470 CURVE",
"210 28 LINE"
);
},
{
closed = 1;
nodes = (
"383 31 OFFCURVE",
"327 85 OFFCURVE",
"327 147 CURVE SMOOTH",
"327 165 OFFCURVE",
"343 195 OFFCURVE",
"354 196 CURVE SMOOTH",
"367 198 LINE SMOOTH",
"407 204 OFFCURVE",
"447 211 OFFCURVE",
"488 211 CURVE SMOOTH",
"555 211 OFFCURVE",
"595 188 OFFCURVE",
"595 143 CURVE SMOOTH",
"595 78 OFFCURVE",
"502 43 OFFCURVE",
"471 28 CURVE",
"471 28 LINE"
);
},
{
closed = 1;
nodes = (
"409 556 OFFCURVE",
"427 557 OFFCURVE",
"432 557 CURVE SMOOTH",
"452 557 OFFCURVE",
"482 555 OFFCURVE",
"482 532 CURVE SMOOTH",
"482 482 OFFCURVE",
"368 376 OFFCURVE",
"304 332 CURVE",
"270 543 LINE"
);
}
);
width = 758;
}
);
unicode = 0042;
},
{
glyphname = C;
lastChange = "2019-03-20 22:31:53 +0000";
layers = (
{
hints = (
{
place = "{28, 131}";
type = Stem;
},
{
horizontal = 1;
place = "{-36, 133}";
type = Stem;
},
{
horizontal = 1;
place = "{494, 134}";
type = Stem;
}
);
layerId = UUID0;
paths = (
{
closed = 1;
nodes = (
"214 532 OFFCURVE",
"283 497 OFFCURVE",
"283 548 CURVE SMOOTH",
"283 598 OFFCURVE",
"218 629 OFFCURVE",
"180 629 CURVE SMOOTH",
"73 629 OFFCURVE",
"28 428 OFFCURVE",
"28 315 CURVE SMOOTH",
"28 175 OFFCURVE",
"89 -36 OFFCURVE",
"255 -36 CURVE SMOOTH",
"339 -36 OFFCURVE",
"487 30 OFFCURVE",
"487 130 CURVE SMOOTH",
"487 160 OFFCURVE",
"471 184 OFFCURVE",
"432 184 CURVE SMOOTH",
"386 184 OFFCURVE",
"372 156 OFFCURVE",
"341 134 CURVE",
"309 108 OFFCURVE",
"278 97 OFFCURVE",
"256 97 CURVE SMOOTH",
"203 97 OFFCURVE",
"159 195 OFFCURVE",
"159 323 CURVE SMOOTH",
"159 366 OFFCURVE",
"166 437 OFFCURVE",
"187 479 CURVE SMOOTH",
"187 479 LINE"
);
}
);
width = 516;
}
);
unicode = 0043;
},
{
glyphname = D;
lastChange = "2019-03-20 22:31:53 +0000";
layers = (
{
hints = (
{
place = "{477, 136}";
type = Stem;
},
{
horizontal = 1;
place = "{-47, 21}";
target = up;
type = BottomGhost;
},
{
horizontal = 1;
place = "{458, -20}";
target = down;
type = TopGhost;
}
);
layerId = UUID0;
paths = (
{
closed = 1;
nodes = (
"567 486 OFFCURVE",
"457 545 OFFCURVE",
"321 577 CURVE SMOOTH",
"265 590 OFFCURVE",
"207 592 OFFCURVE",
"148 624 CURVE SMOOTH",
"128 635 OFFCURVE",
"111 644 OFFCURVE",
"98 644 CURVE SMOOTH",
"41 644 OFFCURVE",
"26 527 OFFCURVE",
"26 491 CURVE SMOOTH",
"26 468 OFFCURVE",
"29 445 OFFCURVE",
"38 420 CURVE",
"90 245 OFFCURVE",
"70 -47 OFFCURVE",
"211 -47 CURVE SMOOTH",
"316 -47 OFFCURVE",
"613 154 OFFCURVE",
"613 309 CURVE SMOOTH",
"613 317 OFFCURVE",
"612 332 OFFCURVE",
"610 340 CURVE SMOOTH",
"610 340 LINE"
);
},
{
closed = 1;
nodes = (
"403 188 OFFCURVE",
"307 119 OFFCURVE",
"231 98 CURVE",
"167 458 LINE",
"182 460 OFFCURVE",
"205 462 OFFCURVE",
"219 462 CURVE SMOOTH",
"321 462 OFFCURVE",
"477 390 OFFCURVE",
"477 318 CURVE SMOOTH",
"477 298 OFFCURVE",
"467 278 OFFCURVE",
"448 252 CURVE SMOOTH",
"448 252 LINE"
);
}
);
width = 642;
}
);
unicode = 0044;
},
{
glyphname = E;
lastChange = "2019-03-20 22:31:53 +0000";
layers = (
{
hints = (
{
horizontal = 1;
place = "{-23, 125}";
type = Stem;
},
{
horizontal = 1;
place = "{343, 119}";
type = Stem;
}
);
layerId = UUID0;
paths = (
{
closed = 1;
nodes = (
"207 397 OFFCURVE",
"199 440 OFFCURVE",
"199 467 CURVE SMOOTH",
"199 508 OFFCURVE",
"215 519 OFFCURVE",
"280 543 CURVE SMOOTH",
"332 562 OFFCURVE",
"417 581 OFFCURVE",
"470 589 CURVE SMOOTH",
"511 595 OFFCURVE",
"544 605 OFFCURVE",
"544 652 CURVE SMOOTH",
"544 709 OFFCURVE",
"503 723 OFFCURVE",
"448 723 CURVE SMOOTH",
"349 723 OFFCURVE",
"268 658 OFFCURVE",
"174 636 CURVE SMOOTH",
"99 618 OFFCURVE",
"26 537 OFFCURVE",
"26 474 CURVE SMOOTH",
"26 361 OFFCURVE",
"97 38 OFFCURVE",
"102 -30 CURVE SMOOTH",
"108 -101 OFFCURVE",
"122 -129 OFFCURVE",
"171 -129 CURVE SMOOTH",
"187 -129 OFFCURVE",
"204 -128 OFFCURVE",
"227 -123 CURVE SMOOTH",
"340 -97 OFFCURVE",
"454 -67 OFFCURVE",
"567 -38 CURVE SMOOTH",
"616 -25 OFFCURVE",
"655 -8 OFFCURVE",
"655 34 CURVE SMOOTH",
"655 78 OFFCURVE",
"627 99 OFFCURVE",
"593 99 CURVE SMOOTH",
"576 99 OFFCURVE",
"537 90 OFFCURVE",
"508 83 CURVE SMOOTH",
"411 58 OFFCURVE",
"327 35 OFFCURVE",
"233 9 CURVE",
"215 198 LINE",
"332 245 OFFCURVE",
"420 285 OFFCURVE",
"524 321 CURVE SMOOTH",
"570 337 OFFCURVE",
"624 346 OFFCURVE",
"624 397 CURVE SMOOTH",
"624 440 OFFCURVE",
"590 459 OFFCURVE",
"559 459 CURVE SMOOTH",
"474 459 OFFCURVE",
"333 386 OFFCURVE",
"218 340 CURVE",
"218 345 LINE"
);
}
);
width = 686;
}
);
unicode = 0045;
},
{
glyphname = F;
lastChange = "2019-03-20 22:31:53 +0000";
layers = (
{
hints = (
{
place = "{93, 134}";
type = Stem;
},
{
horizontal = 1;
place = "{533, 128}";
type = Stem;
}
);
layerId = UUID0;
paths = (
{
closed = 1;
nodes = (
"366 193 OFFCURVE",
"434 210 OFFCURVE",
"576 253 CURVE SMOOTH",
"609 263 OFFCURVE",
"627 291 OFFCURVE",
"627 318 CURVE SMOOTH",
"627 345 OFFCURVE",
"615 383 OFFCURVE",
"567 383 CURVE SMOOTH",
"482 383 OFFCURVE",
"350 300 OFFCURVE",
"207 293 CURVE",
"187 438 LINE",
"313 485 OFFCURVE",
"448 507 OFFCURVE",
"565 534 CURVE SMOOTH",
"602 542 OFFCURVE",
"629 552 OFFCURVE",
"629 595 CURVE SMOOTH",
"629 645 OFFCURVE",
"592 665 OFFCURVE",
"548 665 CURVE SMOOTH",
"530 665 OFFCURVE",
"500 660 OFFCURVE",
"482 656 CURVE SMOOTH",
"175 582 LINE",
"147 608 OFFCURVE",
"134 660 OFFCURVE",
"93 660 CURVE SMOOTH",
"43 660 OFFCURVE",
"28 621 OFFCURVE",
"28 600 CURVE SMOOTH",
"28 580 OFFCURVE",
"35 559 OFFCURVE",
"37 543 CURVE SMOOTH",
"48 471 OFFCURVE",
"55 395 OFFCURVE",
"64 322 CURVE SMOOTH",
"77 224 OFFCURVE",
"89 131 OFFCURVE",
"92 37 CURVE SMOOTH",
"94 -28 OFFCURVE",
"130 -64 OFFCURVE",
"165 -64 CURVE SMOOTH",
"211 -64 OFFCURVE",
"227 -25 OFFCURVE",
"227 49 CURVE SMOOTH",
"227 73 OFFCURVE",
"225 97 OFFCURVE",
"225 119 CURVE SMOOTH",
"225 130 OFFCURVE",
"225 142 OFFCURVE",
"227 151 CURVE",
"227 151 LINE"
);
}
);
width = 656;
}
);
unicode = 0046;
},
{
glyphname = G;
lastChange = "2019-03-20 22:31:53 +0000";
layers = (
{
hints = (
{
place = "{737, 128}";
type = Stem;
},
{
horizontal = 1;
place = "{290, 111}";
type = Stem;
}
);
layerId = UUID0;
paths = (
{
closed = 1;
nodes = (
"669 250 OFFCURVE",
"626 240 OFFCURVE",
"593 218 CURVE SMOOTH",
"523 170 OFFCURVE",
"449 151 OFFCURVE",
"370 151 CURVE SMOOTH",
"222 151 OFFCURVE",
"159 193 OFFCURVE",
"159 330 CURVE SMOOTH",
"159 411 OFFCURVE",
"176 487 OFFCURVE",
"264 533 CURVE SMOOTH",
"288 545 OFFCURVE",
"307 564 OFFCURVE",
"307 584 CURVE SMOOTH",
"307 615 OFFCURVE",
"265 637 OFFCURVE",
"225 637 CURVE SMOOTH",
"197 637 OFFCURVE",
"152 613 OFFCURVE",
"131 590 CURVE SMOOTH",
"60 512 OFFCURVE",
"25 424 OFFCURVE",
"25 329 CURVE SMOOTH",
"25 221 OFFCURVE",
"68 90 OFFCURVE",
"190 48 CURVE SMOOTH",
"252 27 OFFCURVE",
"311 15 OFFCURVE",
"373 15 CURVE SMOOTH",
"500 15 OFFCURVE",
"604 61 OFFCURVE",
"726 156 CURVE",
"732 62 OFFCURVE",
"715 -43 OFFCURVE",
"798 -43 CURVE SMOOTH",
"843 -43 OFFCURVE",
"862 -11 OFFCURVE",
"862 29 CURVE SMOOTH",
"862 108 OFFCURVE",
"846 250 OFFCURVE",
"832 333 CURVE SMOOTH",
"815 435 OFFCURVE",
"742 479 OFFCURVE",
"627 479 CURVE SMOOTH",
"511 479 OFFCURVE",
"268 420 OFFCURVE",
"268 335 CURVE SMOOTH",
"268 292 OFFCURVE",
"296 275 OFFCURVE",
"316 275 CURVE SMOOTH",
"358 275 OFFCURVE",
"567 349 OFFCURVE",
"644 349 CURVE SMOOTH",
"686 349 OFFCURVE",
"692 327 OFFCURVE",
"701 260 CURVE",
"701 260 LINE"
);
}
);
width = 894;
}
);
unicode = 0047;
},
{
glyphname = H;
lastChange = "2019-03-20 22:31:53 +0000";
layers = (
{
hints = (
{
place = "{34, 120}";
type = Stem;
},
{
place = "{88, 122}";
type = Stem;
},
{
place = "{488, 128}";
type = Stem;
}
);
layerId = UUID0;
paths = (
{
closed = 1;
nodes = (
"542 142 OFFCURVE",
"552 0 OFFCURVE",
"624 0 CURVE SMOOTH",
"672 0 OFFCURVE",
"685 38 OFFCURVE",
"685 62 CURVE SMOOTH",
"685 105 OFFCURVE",
"666 146 OFFCURVE",
"660 188 CURVE SMOOTH",
"612 524 LINE",
"612 530 LINE",
"607 571 OFFCURVE",
"600 621 OFFCURVE",
"539 621 CURVE SMOOTH",
"500 621 OFFCURVE",
"485 580 OFFCURVE",
"485 510 CURVE SMOOTH",
"485 395 LINE",
"395 383 OFFCURVE",
"309 363 OFFCURVE",
"213 363 CURVE SMOOTH",
"193 363 OFFCURVE",
"171 363 OFFCURVE",
"150 366 CURVE",
"150 412 OFFCURVE",
"151 454 OFFCURVE",
"151 493 CURVE SMOOTH",
"151 500 LINE SMOOTH",
"151 550 OFFCURVE",
"151 612 OFFCURVE",
"99 612 CURVE SMOOTH",
"68 612 OFFCURVE",
"23 565 OFFCURVE",
"23 528 CURVE SMOOTH",
"23 520 OFFCURVE",
"23 510 OFFCURVE",
"25 502 CURVE",
"35 377 OFFCURVE",
"43 253 OFFCURVE",
"58 130 CURVE SMOOTH",
"66 63 OFFCURVE",
"90 -32 OFFCURVE",
"148 -32 CURVE SMOOTH",
"196 -32 OFFCURVE",
"212 3 OFFCURVE",
"212 29 CURVE SMOOTH",
"212 41 OFFCURVE",
"211 55 OFFCURVE",
"207 69 CURVE SMOOTH",
"193 120 OFFCURVE",
"185 173 OFFCURVE",
"174 231 CURVE",
"510 264 LINE"
);
}
);
width = 715;
}
);
unicode = 0048;
},
{
glyphname = I;
lastChange = "2019-03-20 22:31:53 +0000";
layers = (
{
hints = (
{
place = "{38, 112}";
type = Stem;
},
{
horizontal = 1;
place = "{647, -20}";
target = down;
type = TopGhost;
}
);
layerId = UUID0;
paths = (
{
closed = 1;
nodes = (
"203 218 OFFCURVE",
"165 576 OFFCURVE",
"150 610 CURVE SMOOTH",
"142 629 OFFCURVE",
"113 647 OFFCURVE",
"93 649 CURVE",
"46 647 OFFCURVE",
"28 590 OFFCURVE",
"28 545 CURVE SMOOTH",
"28 465 OFFCURVE",
"45 373 OFFCURVE",
"58 292 CURVE SMOOTH",
"73 193 OFFCURVE",
"91 98 OFFCURVE",
"111 1 CURVE SMOOTH",
"118 -32 OFFCURVE",
"139 -53 OFFCURVE",
"171 -53 CURVE SMOOTH",
"219 -53 OFFCURVE",
"238 -19 OFFCURVE",
"238 20 CURVE SMOOTH",
"238 42 OFFCURVE",
"228 61 OFFCURVE",
"225 83 CURVE SMOOTH",
"225 83 LINE"
);
}
);
width = 265;
}
);
unicode = 0049;
},
{
glyphname = J;
lastChange = "2019-03-20 22:31:53 +0000";
layers = (
{
hints = (
{
place = "{187, 165}";
type = Stem;
},
{
place = "{232, 142}";
type = Stem;
}
);
layerId = UUID0;
paths = (
{
closed = 1;
nodes = (
"153 23 OFFCURVE",
"136 183 OFFCURVE",
"78 183 CURVE SMOOTH",
"55 183 OFFCURVE",
"29 139 OFFCURVE",
"26 119 CURVE",
"31 21 OFFCURVE",
"71 -107 OFFCURVE",
"184 -107 CURVE SMOOTH",
"316 -107 OFFCURVE",
"372 85 OFFCURVE",
"372 204 CURVE SMOOTH",
"372 327 OFFCURVE",
"355 450 OFFCURVE",
"348 573 CURVE SMOOTH",
"345 627 OFFCURVE",
"321 694 OFFCURVE",
"265 694 CURVE SMOOTH",
"215 694 OFFCURVE",
"183 637 OFFCURVE",
"183 587 CURVE SMOOTH",
"183 533 OFFCURVE",
"222 508 OFFCURVE",
"222 483 CURVE SMOOTH",
"222 392 OFFCURVE",
"227 301 OFFCURVE",
"227 212 CURVE SMOOTH",
"227 122 LINE SMOOTH",
"227 91 OFFCURVE",
"208 23 OFFCURVE",
"193 23 CURVE SMOOTH",
"193 23 LINE"
);
}
);
width = 401;
}
);
unicode = 004A;
},
{
glyphname = K;
lastChange = "2019-03-20 22:31:53 +0000";
layers = (
{
hints = (
{
place = "{28, 105}";
type = Stem;
}
);
layerId = UUID0;
paths = (
{
closed = 1;
nodes = (
"567 212 OFFCURVE",
"448 261 OFFCURVE",
"321 317 CURVE",
"409 414 OFFCURVE",
"474 482 OFFCURVE",
"543 576 CURVE",
"551 590 OFFCURVE",
"555 604 OFFCURVE",
"555 616 CURVE SMOOTH",
"555 636 OFFCURVE",
"543 665 OFFCURVE",
"510 665 CURVE SMOOTH",
"455 665 OFFCURVE",
"439 630 OFFCURVE",
"405 596 CURVE SMOOTH",
"347 537 OFFCURVE",
"288 478 OFFCURVE",
"217 408 CURVE SMOOTH",
"196 388 LINE",
"165 516 OFFCURVE",
"163 652 OFFCURVE",
"65 652 CURVE SMOOTH",
"48 652 OFFCURVE",
"23 618 OFFCURVE",
"23 584 CURVE SMOOTH",
"23 565 OFFCURVE",
"34 547 OFFCURVE",
"37 528 CURVE SMOOTH",
"54 432 OFFCURVE",
"90 238 OFFCURVE",
"90 231 CURVE",
"106 104 OFFCURVE",
"133 -70 OFFCURVE",
"196 -70 CURVE SMOOTH",
"240 -70 OFFCURVE",
"258 -40 OFFCURVE",
"258 -5 CURVE SMOOTH",
"258 57 OFFCURVE",
"244 120 OFFCURVE",
"233 198 CURVE",
"381 136 OFFCURVE",
"493 89 OFFCURVE",
"618 33 CURVE",
"636 23 OFFCURVE",
"653 20 OFFCURVE",
"669 20 CURVE SMOOTH",
"694 20 OFFCURVE",
"732 42 OFFCURVE",
"732 88 CURVE SMOOTH",
"732 118 OFFCURVE",
"706 136 OFFCURVE",
"675 150 CURVE",
"675 150 LINE"
);
}
);
width = 769;
}
);
unicode = 004B;
},
{
glyphname = L;
lastChange = "2019-03-20 22:31:53 +0000";
layers = (
{
hints = (
{
place = "{28, 155}";
type = Stem;
}
);
layerId = UUID0;
paths = (
{
closed = 1;
nodes = (
"86 -5 OFFCURVE",
"160 -81 OFFCURVE",
"253 -81 CURVE SMOOTH",
"346 -81 OFFCURVE",
"458 -14 OFFCURVE",
"551 42 CURVE SMOOTH",
"571 54 LINE SMOOTH",
"605 74 OFFCURVE",
"621 101 OFFCURVE",
"621 127 CURVE SMOOTH",
"621 165 OFFCURVE",
"584 188 OFFCURVE",
"564 188 CURVE SMOOTH",
"516 188 OFFCURVE",
"341 54 OFFCURVE",
"267 54 CURVE SMOOTH",
"161 54 OFFCURVE",
"181 429 OFFCURVE",
"174 592 CURVE SMOOTH",
"172 637 OFFCURVE",
"157 677 OFFCURVE",
"100 677 CURVE SMOOTH",
"58 677 OFFCURVE",
"29 637 OFFCURVE",
"29 573 CURVE SMOOTH",
"29 491 OFFCURVE",
"65 206 OFFCURVE",
"67 131 CURVE",
"67 131 LINE"
);
}
);
width = 647;
}
);
unicode = 004C;
},
{
glyphname = M;
lastChange = "2019-03-20 22:31:53 +0000";
layers = (
{
hints = (
{
place = "{136, 152}";
type = Stem;
},
{
place = "{458, 158}";
type = Stem;
}
);
layerId = UUID0;
paths = (
{
closed = 1;
nodes = (
"536 430 LINE SMOOTH",
"497 574 OFFCURVE",
"469 675 OFFCURVE",
"375 675 CURVE SMOOTH",
"315 675 OFFCURVE",
"270 624 OFFCURVE",
"228 527 CURVE",
"191 455 LINE",
"165 556 OFFCURVE",
"160 680 OFFCURVE",
"90 680 CURVE SMOOTH",
"42 680 OFFCURVE",
"28 647 OFFCURVE",
"28 615 CURVE SMOOTH",
"28 605 OFFCURVE",
"31 592 OFFCURVE",
"34 581 CURVE",
"136 88 LINE SMOOTH",
"146 38 OFFCURVE",
"174 -32 OFFCURVE",
"222 -32 CURVE SMOOTH",
"256 -32 OFFCURVE",
"295 35 OFFCURVE",
"295 55 CURVE SMOOTH",
"295 208 OFFCURVE",
"323 347 OFFCURVE",
"358 497 CURVE",
"378 477 OFFCURVE",
"397 439 OFFCURVE",
"402 412 CURVE SMOOTH",
"420 316 OFFCURVE",
"440 218 OFFCURVE",
"459 122 CURVE SMOOTH",
"468 78 OFFCURVE",
"479 28 OFFCURVE",
"535 28 CURVE SMOOTH",
"635 28 OFFCURVE",
"617 175 OFFCURVE",
"647 253 CURVE SMOOTH",
"668 310 OFFCURVE",
"711 399 OFFCURVE",
"740 451 CURVE SMOOTH",
"760 487 OFFCURVE",
"789 524 OFFCURVE",
"842 524 CURVE SMOOTH",
"887 524 OFFCURVE",
"899 367 OFFCURVE",
"904 297 CURVE",
"904 181 OFFCURVE",
"913 -90 OFFCURVE",
"1017 -90 CURVE SMOOTH",
"1046 -90 OFFCURVE",
"1081 -51 OFFCURVE",
"1081 -15 CURVE SMOOTH",
"1081 -12 OFFCURVE",
"1081 -7 OFFCURVE",
"1080 -5 CURVE SMOOTH",
"1027 94 OFFCURVE",
"1049 204 OFFCURVE",
"1035 307 CURVE SMOOTH",
"1009 489 OFFCURVE",
"985 666 OFFCURVE",
"847 666 CURVE SMOOTH",
"718 666 OFFCURVE",
"608 493 OFFCURVE",
"545 392 CURVE",
"544 400 LINE"
);
}
);
width = 1107;
}
);
unicode = 004D;
},
{
glyphname = N;
lastChange = "2019-03-20 22:31:53 +0000";
layers = (
{
hints = (
{
place = "{18, 189}";
type = Stem;
},
{
place = "{18, 859}";
type = Stem;
},
{
horizontal = 1;
place = "{-84, 21}";
target = up;
type = BottomGhost;
},
{
horizontal = 1;
place = "{-51, 21}";
target = up;
type = BottomGhost;
}
);
layerId = UUID0;
paths = (
{
closed = 1;
nodes = (
"366 163 OFFCURVE",
"487 25 OFFCURVE",
"669 -56 CURVE SMOOTH",
"701 -70 OFFCURVE",
"734 -84 OFFCURVE",
"766 -84 CURVE SMOOTH",
"840 -84 OFFCURVE",
"877 -19 OFFCURVE",
"877 35 CURVE SMOOTH",
"877 57 OFFCURVE",
"874 80 OFFCURVE",
"870 100 CURVE SMOOTH",
"843 236 OFFCURVE",
"815 373 OFFCURVE",
"790 508 CURVE SMOOTH",
"777 575 OFFCURVE",
"770 681 OFFCURVE",
"693 681 CURVE SMOOTH",
"652 681 OFFCURVE",
"636 644 OFFCURVE",
"636 604 CURVE",
"644 510 OFFCURVE",
"675 417 OFFCURVE",
"693 324 CURVE SMOOTH",
"709 239 OFFCURVE",
"721 155 OFFCURVE",
"738 55 CURVE",
"629 98 OFFCURVE",
"556 156 OFFCURVE",
"486 221 CURVE SMOOTH",
"366 333 OFFCURVE",
"250 448 OFFCURVE",
"131 562 CURVE",
"114 576 OFFCURVE",
"97 585 OFFCURVE",
"80 585 CURVE SMOOTH",
"40 585 OFFCURVE",
"18 550 OFFCURVE",
"18 487 CURVE SMOOTH",
"18 400 OFFCURVE",
"33 307 OFFCURVE",
"42 218 CURVE SMOOTH",
"51 128 OFFCURVE",
"41 -51 OFFCURVE",
"145 -51 CURVE SMOOTH",
"195 -51 OFFCURVE",
"207 33 OFFCURVE",
"207 86 CURVE SMOOTH",
"207 151 OFFCURVE",
"205 216 OFFCURVE",
"205 307 CURVE",
"205 307 LINE"
);
}
);
width = 910;
}
);
unicode = 004E;
},
{
glyphname = O;
lastChange = "2019-03-20 22:31:53 +0000";
layers = (
{
hints = (
{
place = "{28, 137}";
type = Stem;
}
);
layerId = UUID0;
paths = (
{
closed = 1;
nodes = (
"539 539 OFFCURVE",
"499 616 OFFCURVE",
"380 616 CURVE SMOOTH",
"199 616 OFFCURVE",
"117 531 OFFCURVE",
"49 378 CURVE",
"38 345 OFFCURVE",
"28 290 OFFCURVE",
"28 255 CURVE SMOOTH",
"28 102 OFFCURVE",
"130 -20 OFFCURVE",
"272 -20 CURVE SMOOTH",
"446 -20 OFFCURVE",
"628 136 OFFCURVE",
"628 298 CURVE SMOOTH",
"628 349 OFFCURVE",
"613 400 OFFCURVE",
"585 451 CURVE",
"585 451 LINE"
);
},
{
closed = 1;
nodes = (
"204 113 OFFCURVE",
"163 165 OFFCURVE",
"163 265 CURVE SMOOTH",
"163 289 OFFCURVE",
"182 350 OFFCURVE",
"196 381 CURVE SMOOTH",
"227 451 OFFCURVE",
"270 486 OFFCURVE",
"320 486 CURVE SMOOTH",
"392 486 OFFCURVE",
"488 434 OFFCURVE",
"488 304 CURVE SMOOTH",
"488 196 OFFCURVE",
"379 113 OFFCURVE",
"275 113 CURVE SMOOTH",
"275 113 LINE"
);
}
);
width = 655;
}
);
unicode = 004F;
},
{
glyphname = P;
lastChange = "2019-03-20 22:31:53 +0000";
layers = (
{
hints = (
{
place = "{123, 132}";
type = Stem;
}
);
layerId = UUID0;
paths = (
{
closed = 1;
nodes = (
"412 142 OFFCURVE",
"496 258 OFFCURVE",
"496 394 CURVE SMOOTH",
"496 570 OFFCURVE",
"382 693 OFFCURVE",
"287 693 CURVE SMOOTH",
"231 693 OFFCURVE",
"178 661 OFFCURVE",
"143 596 CURVE SMOOTH",
"141 591 OFFCURVE",
"132 590 OFFCURVE",
"122 590 CURVE SMOOTH",
"106 590 LINE SMOOTH",
"48 590 OFFCURVE",
"28 581 OFFCURVE",
"28 542 CURVE SMOOTH",
"28 527 OFFCURVE",
"31 507 OFFCURVE",
"35 485 CURVE SMOOTH",
"69 312 OFFCURVE",
"90 134 OFFCURVE",
"123 -34 CURVE SMOOTH",
"130 -71 OFFCURVE",
"151 -100 OFFCURVE",
"188 -100 CURVE SMOOTH",
"233 -100 OFFCURVE",
"256 -68 OFFCURVE",
"256 -27 CURVE SMOOTH",
"256 3 OFFCURVE",
"255 31 OFFCURVE",
"255 68 CURVE",
"255 68 LINE"
);
},
{
closed = 1;
nodes = (
"222 253 OFFCURVE",
"218 296 OFFCURVE",
"218 337 CURVE SMOOTH",
"218 415 OFFCURVE",
"233 486 OFFCURVE",
"278 555 CURVE",
"335 510 OFFCURVE",
"363 454 OFFCURVE",
"363 398 CURVE SMOOTH",
"363 325 OFFCURVE",
"318 255 OFFCURVE",
"230 210 CURVE",
"230 210 LINE"
);
}
);
width = 524;
}
);
unicode = 0050;
},
{
glyphname = Q;
lastChange = "2019-03-20 22:31:53 +0000";
layers = (
{
hints = (
{
place = "{28, 134}";
type = Stem;
}
);
layerId = UUID0;
paths = (
{
closed = 1;
nodes = (
"629 -5 OFFCURVE",
"669 -54 OFFCURVE",
"710 -54 CURVE SMOOTH",
"740 -54 OFFCURVE",
"771 -23 OFFCURVE",
"771 6 CURVE SMOOTH",
"771 33 OFFCURVE",
"752 60 OFFCURVE",
"729 80 CURVE",
"689 111 OFFCURVE",
"675 148 OFFCURVE",
"675 193 CURVE SMOOTH",
"675 230 OFFCURVE",
"685 273 OFFCURVE",
"685 312 CURVE SMOOTH",
"685 458 OFFCURVE",
"601 571 OFFCURVE",
"457 630 CURVE",
"372 656 OFFCURVE",
"333 689 OFFCURVE",
"281 689 CURVE SMOOTH",
"120 689 OFFCURVE",
"28 402 OFFCURVE",
"28 216 CURVE SMOOTH",
"28 26 OFFCURVE",
"150 -93 OFFCURVE",
"304 -93 CURVE SMOOTH",
"355 -93 OFFCURVE",
"412 -80 OFFCURVE",
"468 -51 CURVE SMOOTH",
"510 -30 OFFCURVE",
"548 0 OFFCURVE",
"590 28 CURVE",
"590 28 LINE"
);
},
{
closed = 1;
nodes = (
"422 80 OFFCURVE",
"375 38 OFFCURVE",
"300 38 CURVE SMOOTH",
"203 38 OFFCURVE",
"156 111 OFFCURVE",
"156 235 CURVE SMOOTH",
"156 358 OFFCURVE",
"187 475 OFFCURVE",
"281 565 CURVE",
"463 479 OFFCURVE",
"537 465 OFFCURVE",
"542 285 CURVE",
"531 290 LINE SMOOTH",
"490 308 OFFCURVE",
"438 330 OFFCURVE",
"411 330 CURVE SMOOTH",
"369 330 OFFCURVE",
"341 304 OFFCURVE",
"341 265 CURVE SMOOTH",
"341 233 OFFCURVE",
"365 218 OFFCURVE",
"398 205 CURVE SMOOTH",
"430 193 OFFCURVE",
"459 170 OFFCURVE",
"516 136 CURVE",
"516 136 LINE"
);
}
);
width = 799;
}
);
unicode = 0051;
},
{
glyphname = R;
lastChange = "2019-03-20 22:31:53 +0000";
layers = (
{
hints = (
{
place = "{94, 130}";
type = Stem;
}
);
layerId = UUID0;
paths = (
{
closed = 1;
nodes = (
"630 -34 OFFCURVE",
"647 -5 OFFCURVE",
"647 25 CURVE SMOOTH",
"647 60 OFFCURVE",
"629 98 OFFCURVE",
"580 123 CURVE",
"333 222 LINE",
"341 232 LINE SMOOTH",
"418 328 OFFCURVE",
"502 434 OFFCURVE",
"502 530 CURVE SMOOTH",
"502 600 OFFCURVE",
"446 660 OFFCURVE",
"377 660 CURVE SMOOTH",
"307 660 OFFCURVE",
"235 582 OFFCURVE",
"168 505 CURVE",
"164 518 LINE SMOOTH",
"146 583 OFFCURVE",
"133 632 OFFCURVE",
"80 632 CURVE SMOOTH",
"62 632 OFFCURVE",
"21 584 OFFCURVE",
"21 555 CURVE SMOOTH",
"21 545 OFFCURVE",
"25 533 OFFCURVE",
"26 524 CURVE SMOOTH",
"48 345 OFFCURVE",
"65 167 OFFCURVE",
"87 -12 CURVE SMOOTH",
"91 -48 OFFCURVE",
"114 -70 OFFCURVE",
"154 -70 CURVE SMOOTH",
"210 -70 OFFCURVE",
"218 -20 OFFCURVE",
"218 33 CURVE SMOOTH",
"218 57 OFFCURVE",
"216 82 OFFCURVE",
"216 111 CURVE",
"252 100 OFFCURVE",
"278 90 OFFCURVE",
"307 82 CURVE SMOOTH",
"409 54 OFFCURVE",
"462 14 OFFCURVE",
"561 -28 CURVE",
"609 -37 LINE"
);
},
{
closed = 1;
nodes = (
"344 483 LINE",
"338 442 OFFCURVE",
"309 412 OFFCURVE",
"264 388 CURVE",
"324 493 LINE"
);
}
);
width = 675;
}
);
unicode = 0052;
},
{
glyphname = S;
lastChange = "2019-03-20 22:31:53 +0000";
layers = (
{
hints = (
{
place = "{54, 136}";
type = Stem;
},
{
place = "{309, 136}";
type = Stem;
},
{
horizontal = 1;
place = "{-85, 139}";
type = Stem;
},
{
horizontal = 1;
place = "{493, 187}";
type = Stem;
}
);
layerId = UUID0;
paths = (
{
closed = 1;
nodes = (
"313 524 OFFCURVE",
"332 493 OFFCURVE",
"363 493 CURVE SMOOTH",
"390 493 OFFCURVE",
"408 524 OFFCURVE",
"408 565 CURVE SMOOTH",
"408 647 OFFCURVE",
"335 680 OFFCURVE",
"268 680 CURVE SMOOTH",
"159 680 OFFCURVE",
"54 581 OFFCURVE",
"54 474 CURVE SMOOTH",
"54 324 OFFCURVE",
"309 202 OFFCURVE",
"309 102 CURVE SMOOTH",
"309 77 OFFCURVE",
"288 54 OFFCURVE",
"252 54 CURVE SMOOTH",
"228 54 OFFCURVE",
"191 62 OFFCURVE",
"170 71 CURVE SMOOTH",
"136 86 OFFCURVE",
"122 111 OFFCURVE",
"88 111 CURVE SMOOTH",
"45 111 OFFCURVE",
"25 90 OFFCURVE",
"25 57 CURVE SMOOTH",
"25 -19 OFFCURVE",
"153 -85 OFFCURVE",
"239 -85 CURVE SMOOTH",
"350 -85 OFFCURVE",
"445 -5 OFFCURVE",
"445 94 CURVE SMOOTH",
"445 165 OFFCURVE",
"409 224 OFFCURVE",
"335 298 CURVE SMOOTH",
"275 358 OFFCURVE",
"190 426 OFFCURVE",
"190 474 CURVE SMOOTH",
"190 502 OFFCURVE",
"218 525 OFFCURVE",
"278 562 CURVE",
"278 562 LINE"
);
}
);
width = 475;
}
);
unicode = 0053;
},
{
glyphname = T;
lastChange = "2019-03-20 22:31:53 +0000";
layers = (
{
hints = (
{
place = "{218, 127}";
type = Stem;
},
{
place = "{275, 128}";
type = Stem;
},
{
horizontal = 1;
place = "{474, 116}";
type = Stem;
}
);
layerId = UUID0;
paths = (
{
closed = 1;
nodes = (
"460 548 OFFCURVE",
"607 551 OFFCURVE",
"607 627 CURVE SMOOTH",
"607 685 OFFCURVE",
"564 692 OFFCURVE",
"523 692 CURVE SMOOTH",
"370 692 OFFCURVE",
"222 625 OFFCURVE",
"77 590 CURVE SMOOTH",
"46 582 OFFCURVE",
"23 564 OFFCURVE",
"23 539 CURVE SMOOTH",
"23 499 OFFCURVE",
"73 471 OFFCURVE",
"108 471 CURVE SMOOTH",
"143 471 OFFCURVE",
"176 480 OFFCURVE",
"213 486 CURVE",
"239 321 OFFCURVE",
"253 154 OFFCURVE",
"269 -14 CURVE SMOOTH",
"273 -56 OFFCURVE",
"287 -93 OFFCURVE",
"335 -93 CURVE SMOOTH",
"392 -93 OFFCURVE",
"398 -43 OFFCURVE",
"398 8 CURVE SMOOTH",
"398 178 OFFCURVE",
"365 340 OFFCURVE",
"340 524 CURVE",
"345 527 LINE"
);
}
);
width = 635;
}
);
unicode = 0054;
},
{
glyphname = U;
lastChange = "2019-03-20 22:31:53 +0000";
layers = (
{
hints = (
{
place = "{350, 112}";
type = Stem;
}
);
layerId = UUID0;
paths = (
{
closed = 1;
nodes = (
"296 62 OFFCURVE",
"247 125 OFFCURVE",
"230 191 CURVE SMOOTH",
"202 303 OFFCURVE",
"183 418 OFFCURVE",
"161 533 CURVE SMOOTH",
"151 585 OFFCURVE",
"155 666 OFFCURVE",
"93 666 CURVE SMOOTH",
"69 666 OFFCURVE",
"26 616 OFFCURVE",
"26 596 CURVE SMOOTH",
"26 385 OFFCURVE",
"62 125 OFFCURVE",
"216 -23 CURVE SMOOTH",
"253 -59 OFFCURVE",
"296 -74 OFFCURVE",
"335 -74 CURVE SMOOTH",
"454 -74 OFFCURVE",
"539 82 OFFCURVE",
"539 287 CURVE SMOOTH",
"539 381 OFFCURVE",
"519 475 OFFCURVE",
"482 568 CURVE SMOOTH",
"466 608 OFFCURVE",
"432 635 OFFCURVE",
"397 635 CURVE SMOOTH",
"373 635 OFFCURVE",
"349 593 OFFCURVE",
"349 564 CURVE SMOOTH",
"349 539 OFFCURVE",
"369 510 OFFCURVE",
"373 483 CURVE",
"373 471 OFFCURVE",
"375 460 OFFCURVE",
"377 450 CURVE",
"387 373 OFFCURVE",
"400 268 OFFCURVE",
"400 205 CURVE SMOOTH",
"400 155 OFFCURVE",
"370 62 OFFCURVE",
"335 62 CURVE SMOOTH",
"335 62 LINE"
);
}
);
width = 567;
}
);
unicode = 0055;
},
{
glyphname = V;
lastChange = "2019-03-20 22:31:53 +0000";
layers = (
{
hints = (
{
place = "{28, 532}";
type = Stem;
},
{
horizontal = 1;
place = "{-109, 21}";
target = up;
type = BottomGhost;
}
);
layerId = UUID0;
paths = (
{
closed = 1;
nodes = (
"290 102 LINE",
"238 240 OFFCURVE",
"199 382 OFFCURVE",
"155 524 CURVE SMOOTH",
"145 555 OFFCURVE",
"123 585 OFFCURVE",
"90 585 CURVE SMOOTH",
"43 585 OFFCURVE",
"28 551 OFFCURVE",
"28 524 CURVE SMOOTH",
"28 511 OFFCURVE",
"29 499 OFFCURVE",
"34 486 CURVE",
"73 350 OFFCURVE",
"113 213 OFFCURVE",
"160 80 CURVE SMOOTH",
"188 0 OFFCURVE",
"244 -109 OFFCURVE",
"318 -109 CURVE SMOOTH",
"437 -109 OFFCURVE",
"438 45 OFFCURVE",
"456 140 CURVE SMOOTH",
"487 303 OFFCURVE",
"462 477 OFFCURVE",
"556 628 CURVE",
"560 632 OFFCURVE",
"560 637 OFFCURVE",
"560 645 CURVE SMOOTH",
"560 693 OFFCURVE",
"533 703 OFFCURVE",
"503 703 CURVE SMOOTH",
"415 703 OFFCURVE",
"378 565 OFFCURVE",
"363 471 CURVE SMOOTH",
"344 350 OFFCURVE",
"333 227 OFFCURVE",
"318 106 CURVE",
"309 61 LINE"
);
}
);
width = 588;
}
);
unicode = 0056;
},
{
glyphname = W;
lastChange = "2019-03-20 22:31:53 +0000";
layers = (
{
hints = (
{
place = "{819, 129}";
type = Stem;
},
{
place = "{822, 130}";
type = Stem;
}
);
layerId = UUID0;
paths = (
{
closed = 1;
nodes = (
"295 211 LINE SMOOTH",
"262 328 OFFCURVE",
"222 448 OFFCURVE",
"162 566 CURVE SMOOTH",
"146 598 OFFCURVE",
"118 613 OFFCURVE",
"90 613 CURVE SMOOTH",
"51 613 OFFCURVE",
"25 584 OFFCURVE",
"25 548 CURVE SMOOTH",
"25 502 OFFCURVE",
"80 434 OFFCURVE",
"106 370 CURVE",
"148 245 OFFCURVE",
"202 -54 OFFCURVE",
"304 -54 CURVE SMOOTH",
"335 -54 OFFCURVE",
"383 -16 OFFCURVE",
"400 18 CURVE",
"422 70 OFFCURVE",
"430 130 OFFCURVE",
"445 185 CURVE SMOOTH",
"459 240 OFFCURVE",
"471 296 OFFCURVE",
"491 377 CURVE",
"582 204 OFFCURVE",
"629 89 OFFCURVE",
"743 -2 CURVE SMOOTH",
"770 -23 OFFCURVE",
"797 -34 OFFCURVE",
"820 -34 CURVE SMOOTH",
"884 -34 OFFCURVE",
"950 40 OFFCURVE",
"950 139 CURVE SMOOTH",
"950 281 OFFCURVE",
"949 423 OFFCURVE",
"945 565 CURVE SMOOTH",
"944 607 OFFCURVE",
"925 640 OFFCURVE",
"882 640 CURVE SMOOTH",
"826 640 OFFCURVE",
"817 602 OFFCURVE",
"817 560 CURVE SMOOTH",
"817 483 OFFCURVE",
"826 406 OFFCURVE",
"826 330 CURVE SMOOTH",
"826 261 OFFCURVE",
"822 193 OFFCURVE",
"819 105 CURVE",
"786 134 OFFCURVE",
"766 146 OFFCURVE",
"756 163 CURVE SMOOTH",
"720 225 OFFCURVE",
"687 290 OFFCURVE",
"650 354 CURVE SMOOTH",
"638 374 LINE SMOOTH",
"597 446 OFFCURVE",
"546 535 OFFCURVE",
"479 535 CURVE SMOOTH",
"376 535 OFFCURVE",
"342 366 OFFCURVE",
"314 228 CURVE SMOOTH",
"304 179 LINE"
);
}
);
width = 981;
}
);
unicode = 0057;
},
{
glyphname = X;
lastChange = "2019-03-20 22:31:53 +0000";
layers = (
{
hints = (
{
place = "{28, 515}";
type = Stem;
},
{
horizontal = 1;
place = "{-44, 21}";
target = up;
type = BottomGhost;
}
);
layerId = UUID0;
paths = (
{
closed = 1;
nodes = (
"150 198 OFFCURVE",
"90 128 OFFCURVE",
"41 45 CURVE SMOOTH",
"33 32 OFFCURVE",
"28 18 OFFCURVE",
"28 5 CURVE SMOOTH",
"28 -19 OFFCURVE",
"45 -44 OFFCURVE",
"82 -44 CURVE SMOOTH",
"140 -44 OFFCURVE",
"158 -12 OFFCURVE",
"187 25 CURVE SMOOTH",
"296 165 LINE",
"352 99 OFFCURVE",
"426 -8 OFFCURVE",
"487 -8 CURVE SMOOTH",
"530 -8 OFFCURVE",
"540 28 OFFCURVE",
"540 58 CURVE SMOOTH",
"540 93 OFFCURVE",
"511 109 OFFCURVE",
"490 136 CURVE SMOOTH",
"452 184 OFFCURVE",
"414 231 OFFCURVE",
"375 283 CURVE",
"428 369 OFFCURVE",
"475 446 OFFCURVE",
"524 522 CURVE SMOOTH",
"535 539 OFFCURVE",
"543 556 OFFCURVE",
"543 572 CURVE SMOOTH",
"543 598 OFFCURVE",
"513 632 OFFCURVE",
"480 632 CURVE SMOOTH",
"437 632 OFFCURVE",
"390 550 OFFCURVE",
"360 499 CURVE",
"297 405 LINE",
"219 505 OFFCURVE",
"173 616 OFFCURVE",
"122 616 CURVE SMOOTH",
"80 616 OFFCURVE",
"58 580 OFFCURVE",
"58 556 CURVE SMOOTH",
"58 521 OFFCURVE",
"92 480 OFFCURVE",
"118 440 CURVE SMOOTH",
"149 393 OFFCURVE",
"179 342 OFFCURVE",
"218 285 CURVE",
"219 292 LINE"
);
}
);
width = 572;
}
);
unicode = 0058;
},
{
glyphname = Y;
lastChange = "2019-03-20 22:31:53 +0000";
layers = (
{
hints = (
{
place = "{429, 126}";
type = Stem;
},
{
horizontal = 1;
place = "{239, 143}";
type = Stem;
}
);
layerId = UUID0;
paths = (
{
closed = 1;
nodes = (
"417 108 LINE SMOOTH",
"417 92 OFFCURVE",
"416 75 OFFCURVE",
"416 57 CURVE SMOOTH",
"416 -2 OFFCURVE",
"423 -64 OFFCURVE",
"485 -64 CURVE SMOOTH",
"547 -64 OFFCURVE",
"548 -3 OFFCURVE",
"548 51 CURVE SMOOTH",
"548 171 OFFCURVE",
"556 290 OFFCURVE",
"556 411 CURVE SMOOTH",
"556 498 LINE SMOOTH",
"556 528 OFFCURVE",
"556 558 OFFCURVE",
"555 588 CURVE SMOOTH",
"554 628 OFFCURVE",
"538 664 OFFCURVE",
"490 664 CURVE SMOOTH",
"429 664 OFFCURVE",
"425 599 OFFCURVE",
"425 541 CURVE SMOOTH",
"425 491 LINE",
"423 468 OFFCURVE",
"425 382 OFFCURVE",
"409 382 CURVE SMOOTH",
"333 382 OFFCURVE",
"231 426 OFFCURVE",
"175 480 CURVE SMOOTH",
"146 508 OFFCURVE",
"123 548 OFFCURVE",
"73 548 CURVE SMOOTH",
"38 548 OFFCURVE",
"25 527 OFFCURVE",
"25 491 CURVE SMOOTH",
"25 463 OFFCURVE",
"44 441 OFFCURVE",
"63 419 CURVE SMOOTH",
"70 411 LINE SMOOTH",
"159 309 OFFCURVE",
"275 259 OFFCURVE",
"417 239 CURVE",
"417 239 LINE"
);
}
);
width = 584;
}
);
unicode = 0059;
},
{
glyphname = Z;
lastChange = "2019-03-20 22:31:53 +0000";
layers = (
{
hints = (
{
horizontal = 1;
place = "{530, 134}";
type = Stem;
}
);
layerId = UUID0;
paths = (
{
closed = 1;
nodes = (
"366 454 OFFCURVE",
"349 392 OFFCURVE",
"318 335 CURVE SMOOTH",
"273 250 OFFCURVE",
"219 171 OFFCURVE",
"170 90 CURVE SMOOTH",
"156 66 OFFCURVE",
"146 43 OFFCURVE",
"146 18 CURVE SMOOTH",
"146 -44 OFFCURVE",
"203 -68 OFFCURVE",
"240 -68 CURVE SMOOTH",
"250 -68 OFFCURVE",
"261 -67 OFFCURVE",
"273 -65 CURVE SMOOTH",
"349 -53 OFFCURVE",
"423 -37 OFFCURVE",
"497 -19 CURVE SMOOTH",
"533 -11 OFFCURVE",
"562 8 OFFCURVE",
"562 45 CURVE SMOOTH",
"562 98 OFFCURVE",
"527 110 OFFCURVE",
"497 110 CURVE SMOOTH",
"446 110 OFFCURVE",
"395 93 OFFCURVE",
"327 82 CURVE",
"411 233 OFFCURVE",
"482 341 OFFCURVE",
"510 495 CURVE",
"511 505 OFFCURVE",
"511 514 OFFCURVE",
"511 524 CURVE SMOOTH",
"511 613 OFFCURVE",
"455 661 OFFCURVE",
"358 661 CURVE SMOOTH",
"241 661 OFFCURVE",
"23 575 OFFCURVE",
"23 487 CURVE SMOOTH",
"23 457 OFFCURVE",
"58 418 OFFCURVE",
"100 418 CURVE SMOOTH",
"122 418 OFFCURVE",
"147 432 OFFCURVE",
"162 448 CURVE",
"216 517 OFFCURVE",
"288 528 OFFCURVE",
"395 528 CURVE",
"398 530 LINE"
);
}
);
width = 590;
}
);
unicode = 005A;
},
{
glyphname = a;
lastChange = "2019-03-20 22:31:53 +0000";
layers = (
{
hints = (
{
place = "{31, 136}";
type = Stem;
}
);
layerId = UUID0;
paths = (
{
closed = 1;
nodes = (
"423 61 OFFCURVE",
"474 -116 OFFCURVE",
"552 -116 CURVE SMOOTH",
"592 -116 OFFCURVE",
"622 -76 OFFCURVE",
"622 -48 CURVE SMOOTH",
"622 -34 OFFCURVE",
"616 -17 OFFCURVE",
"606 1 CURVE SMOOTH",
"573 61 OFFCURVE",
"550 125 OFFCURVE",
"523 185 CURVE",
"553 216 OFFCURVE",
"585 256 OFFCURVE",
"585 280 CURVE SMOOTH",
"585 317 OFFCURVE",
"511 335 OFFCURVE",
"466 361 CURVE",
"420 470 OFFCURVE",
"358 658 OFFCURVE",
"280 658 CURVE SMOOTH",
"252 658 OFFCURVE",
"218 637 OFFCURVE",
"174 598 CURVE SMOOTH",
"134 562 OFFCURVE",
"94 535 OFFCURVE",
"94 483 CURVE SMOOTH",
"94 479 OFFCURVE",
"97 475 OFFCURVE",
"98 471 CURVE",
"110 448 OFFCURVE",
"114 429 OFFCURVE",
"114 408 CURVE SMOOTH",
"114 374 OFFCURVE",
"102 340 OFFCURVE",
"94 307 CURVE SMOOTH",
"71 216 OFFCURVE",
"46 127 OFFCURVE",
"28 37 CURVE SMOOTH",
"25 25 OFFCURVE",
"23 15 OFFCURVE",
"23 5 CURVE SMOOTH",
"23 -44 OFFCURVE",
"51 -71 OFFCURVE",
"93 -71 CURVE SMOOTH",
"140 -71 OFFCURVE",
"159 -42 OFFCURVE",
"165 4 CURVE SMOOTH",
"171 45 OFFCURVE",
"185 85 OFFCURVE",
"196 133 CURVE",
"382 165 LINE"
);
},
{
closed = 1;
nodes = (
"228 272 LINE",
"265 415 LINE",
"287 417 LINE",
"337 297 LINE"
);
}
);
width = 649;
}
);
unicode = 0061;
},
{
glyphname = b;
lastChange = "2019-03-20 22:31:53 +0000";
layers = (
{
hints = (
{
horizontal = 1;
place = "{505, 142}";
type = Stem;
}
);
layerId = UUID0;
paths = (
{
closed = 1;
nodes = (
"547 386 OFFCURVE",
"575 443 OFFCURVE",
"575 495 CURVE SMOOTH",
"575 605 OFFCURVE",
"477 647 OFFCURVE",
"337 647 CURVE SMOOTH",
"218 647 OFFCURVE",
"28 595 OFFCURVE",
"28 499 CURVE SMOOTH",
"28 450 OFFCURVE",
"80 380 OFFCURVE",
"97 309 CURVE",
"127 127 OFFCURVE",
"240 -101 OFFCURVE",
"375 -101 CURVE SMOOTH",
"516 -101 OFFCURVE",
"657 15 OFFCURVE",
"657 126 CURVE SMOOTH",
"657 208 OFFCURVE",
"604 245 OFFCURVE",
"514 335 CURVE",
"514 335 LINE"
);
},
{
closed = 1;
nodes = (
"397 400 OFFCURVE",
"330 355 OFFCURVE",
"236 317 CURVE",
"205 485 LINE",
"241 496 OFFCURVE",
"301 505 OFFCURVE",
"340 505 CURVE SMOOTH",
"366 505 OFFCURVE",
"411 500 OFFCURVE",
"438 495 CURVE",
"438 495 LINE"
);
},
{
closed = 1;
nodes = (
"287 165 LINE",
"316 193 OFFCURVE",
"350 203 OFFCURVE",
"382 203 CURVE SMOOTH",
"423 203 OFFCURVE",
"507 188 OFFCURVE",
"507 131 CURVE SMOOTH",
"507 69 OFFCURVE",
"425 54 OFFCURVE",
"372 34 CURVE",
"372 34 LINE"
);
}
);
width = 684;
}
);
unicode = 0062;
},
{
glyphname = c;
lastChange = "2019-03-20 22:31:53 +0000";
layers = (
{
hints = (
{
place = "{28, 135}";
type = Stem;
},
{
horizontal = 1;
place = "{-25, 138}";
type = Stem;
}
);
layerId = UUID0;
paths = (
{
closed = 1;
nodes = (
"466 143 OFFCURVE",
"394 113 OFFCURVE",
"325 113 CURVE SMOOTH",
"255 113 OFFCURVE",
"163 162 OFFCURVE",
"163 248 CURVE SMOOTH",
"163 287 OFFCURVE",
"178 327 OFFCURVE",
"193 365 CURVE",
"278 378 OFFCURVE",
"332 370 OFFCURVE",
"332 429 CURVE SMOOTH",
"332 496 OFFCURVE",
"258 564 OFFCURVE",
"205 564 CURVE SMOOTH",
"108 564 OFFCURVE",
"28 335 OFFCURVE",
"28 222 CURVE SMOOTH",
"28 75 OFFCURVE",
"160 -25 OFFCURVE",
"340 -25 CURVE SMOOTH",
"405 -25 OFFCURVE",
"585 6 OFFCURVE",
"585 86 CURVE SMOOTH",
"585 122 OFFCURVE",
"564 160 OFFCURVE",
"533 175 CURVE",
"533 175 LINE"
);
}
);
width = 615;
}
);
unicode = 0063;
},
{
glyphname = d;
lastChange = "2019-03-20 22:31:53 +0000";
layers = (
{
hints = (
{
place = "{103, 476}";
type = Stem;
}
);
layerId = UUID0;
paths = (
{
closed = 1;
nodes = (
"540 450 OFFCURVE",
"414 523 OFFCURVE",
"258 556 CURVE SMOOTH",
"228 562 OFFCURVE",
"195 562 OFFCURVE",
"168 575 CURVE SMOOTH",
"127 593 OFFCURVE",
"102 605 OFFCURVE",
"83 605 CURVE SMOOTH",
"51 605 OFFCURVE",
"29 528 OFFCURVE",
"29 398 CURVE SMOOTH",
"29 265 OFFCURVE",
"62 134 OFFCURVE",
"105 6 CURVE",
"128 -45 OFFCURVE",
"202 -62 OFFCURVE",
"255 -62 CURVE SMOOTH",
"411 -62 OFFCURVE",
"573 75 OFFCURVE",
"576 255 CURVE",
"576 255 LINE"
);
},
{
closed = 1;
nodes = (
"183 420 OFFCURVE",
"195 420 OFFCURVE",
"208 420 CURVE SMOOTH",
"313 420 OFFCURVE",
"438 333 OFFCURVE",
"438 238 CURVE SMOOTH",
"438 175 OFFCURVE",
"365 82 OFFCURVE",
"264 82 CURVE SMOOTH",
"252 82 OFFCURVE",
"238 82 OFFCURVE",
"222 83 CURVE",
"190 175 OFFCURVE",
"168 327 OFFCURVE",
"168 418 CURVE",
"168 418 LINE"
);
}
);
width = 605;
}
);
unicode = 0064;
},
{
glyphname = e;
lastChange = "2019-03-20 22:31:53 +0000";
layers = (
{
hints = (
{
horizontal = 1;
place = "{-62, 124}";
type = Stem;
},
{
horizontal = 1;
place = "{303, 137}";
type = Stem;
},
{
horizontal = 1;
place = "{548, 136}";
type = Stem;
}
);
layerId = UUID0;
paths = (
{
closed = 1;
nodes = (
"202 382 OFFCURVE",
"196 398 OFFCURVE",
"196 411 CURVE SMOOTH",
"196 436 OFFCURVE",
"215 450 OFFCURVE",
"244 460 CURVE SMOOTH",
"258 464 LINE SMOOTH",
"348 493 OFFCURVE",
"439 522 OFFCURVE",
"530 545 CURVE SMOOTH",
"567 554 OFFCURVE",
"604 565 OFFCURVE",
"604 601 CURVE SMOOTH",
"604 640 OFFCURVE",
"550 686 OFFCURVE",
"508 686 CURVE SMOOTH",
"488 686 OFFCURVE",
"464 681 OFFCURVE",
"446 675 CURVE SMOOTH",
"330 638 OFFCURVE",
"214 596 OFFCURVE",
"99 556 CURVE SMOOTH",
"51 539 OFFCURVE",
"28 504 OFFCURVE",
"28 459 CURVE SMOOTH",
"28 412 OFFCURVE",
"66 346 OFFCURVE",
"73 281 CURVE SMOOTH",
"85 175 OFFCURVE",
"91 68 OFFCURVE",
"103 -39 CURVE SMOOTH",
"110 -107 OFFCURVE",
"141 -138 OFFCURVE",
"190 -138 CURVE SMOOTH",
"198 -138 OFFCURVE",
"207 -137 OFFCURVE",
"215 -135 CURVE",
"324 -117 OFFCURVE",
"434 -101 OFFCURVE",
"543 -81 CURVE SMOOTH",
"608 -70 OFFCURVE",
"667 -55 OFFCURVE",
"667 6 CURVE SMOOTH",
"667 26 OFFCURVE",
"621 66 OFFCURVE",
"590 66 CURVE SMOOTH",
"579 66 OFFCURVE",
"562 60 OFFCURVE",
"547 58 CURVE SMOOTH",
"445 46 OFFCURVE",
"343 35 OFFCURVE",
"233 23 CURVE",
"211 222 LINE",
"302 257 OFFCURVE",
"410 279 OFFCURVE",
"511 300 CURVE SMOOTH",
"542 307 LINE SMOOTH",
"584 316 OFFCURVE",
"615 326 OFFCURVE",
"615 375 CURVE SMOOTH",
"615 423 OFFCURVE",
"575 440 OFFCURVE",
"535 440 CURVE SMOOTH",
"442 440 OFFCURVE",
"324 395 OFFCURVE",
"212 363 CURVE",
"212 363 LINE"
);
}
);
width = 698;
}
);
unicode = 0065;
},
{
glyphname = f;
lastChange = "2019-03-20 22:31:53 +0000";
layers = (
{
hints = (
{
horizontal = 1;
place = "{222, 136}";
type = Stem;
}
);
layerId = UUID0;
paths = (
{
closed = 1;
nodes = (
"528 227 OFFCURVE",
"550 265 OFFCURVE",
"550 301 CURVE SMOOTH",
"550 324 OFFCURVE",
"542 346 OFFCURVE",
"524 358 CURVE",
"355 357 OFFCURVE",
"357 320 OFFCURVE",
"184 296 CURVE",
"171 344 OFFCURVE",
"163 377 OFFCURVE",
"163 400 CURVE SMOOTH",
"163 444 OFFCURVE",
"193 460 OFFCURVE",
"276 482 CURVE SMOOTH",
"335 498 OFFCURVE",
"430 513 OFFCURVE",
"490 523 CURVE SMOOTH",
"533 530 OFFCURVE",
"565 544 OFFCURVE",
"565 592 CURVE SMOOTH",
"565 638 OFFCURVE",
"528 660 OFFCURVE",
"493 660 CURVE SMOOTH",
"487 660 OFFCURVE",
"482 660 OFFCURVE",
"477 658 CURVE",
"392 647 OFFCURVE",
"310 625 OFFCURVE",
"228 608 CURVE SMOOTH",
"198 601 OFFCURVE",
"170 587 OFFCURVE",
"140 587 CURVE SMOOTH",
"48 586 OFFCURVE",
"25 579 OFFCURVE",
"25 513 CURVE SMOOTH",
"25 335 OFFCURVE",
"54 154 OFFCURVE",
"69 -23 CURVE SMOOTH",
"73 -74 OFFCURVE",
"114 -116 OFFCURVE",
"154 -116 CURVE SMOOTH",
"183 -116 OFFCURVE",
"210 -62 OFFCURVE",
"210 -34 CURVE SMOOTH",
"210 -14 OFFCURVE",
"202 8 OFFCURVE",
"199 29 CURVE SMOOTH",
"192 69 OFFCURVE",
"191 110 OFFCURVE",
"187 154 CURVE",
"471 219 OFFCURVE",
"450 209 OFFCURVE",
"487 219 CURVE",
"490 222 LINE"
);
}
);
width = 595;
}
);
unicode = 0066;
},
{
glyphname = g;
lastChange = "2019-03-20 22:31:53 +0000";
layers = (
{
hints = (
{
horizontal = 1;
place = "{-32, 208}";
type = Stem;
},
{
horizontal = 1;
place = "{474, 136}";
type = Stem;
}
);
layerId = UUID0;
paths = (
{
closed = 1;
nodes = (
"178 358 OFFCURVE",
"178 375 OFFCURVE",
"178 378 CURVE SMOOTH",
"182 434 OFFCURVE",
"185 459 OFFCURVE",
"233 474 CURVE SMOOTH",
"264 484 OFFCURVE",
"278 499 OFFCURVE",
"278 524 CURVE SMOOTH",
"278 572 OFFCURVE",
"231 618 OFFCURVE",
"185 618 CURVE SMOOTH",
"78 618 OFFCURVE",
"26 394 OFFCURVE",
"26 278 CURVE SMOOTH",
"26 133 OFFCURVE",
"89 -34 OFFCURVE",
"273 -34 CURVE SMOOTH",
"366 -34 OFFCURVE",
"496 41 OFFCURVE",
"496 111 CURVE SMOOTH",
"496 165 OFFCURVE",
"466 173 OFFCURVE",
"435 173 CURVE SMOOTH",
"373 173 OFFCURVE",
"335 102 OFFCURVE",
"270 102 CURVE SMOOTH",
"231 102 OFFCURVE",
"204 130 OFFCURVE",
"182 193 CURVE",
"279 256 OFFCURVE",
"371 295 OFFCURVE",
"502 295 CURVE",
"513 242 OFFCURVE",
"524 192 OFFCURVE",
"536 143 CURVE SMOOTH",
"540 127 LINE SMOOTH",
"559 52 OFFCURVE",
"560 -80 OFFCURVE",
"638 -80 CURVE SMOOTH",
"686 -80 OFFCURVE",
"707 -44 OFFCURVE",
"707 -15 CURVE SMOOTH",
"707 -5 OFFCURVE",
"706 3 OFFCURVE",
"703 13 CURVE",
"650 261 OFFCURVE",
"638 434 OFFCURVE",
"477 434 CURVE SMOOTH",
"401 434 OFFCURVE",
"295 392 OFFCURVE",
"176 349 CURVE",
"176 349 LINE"
);
}
);
width = 738;
}
);
unicode = 0067;
},
{
glyphname = h;
lastChange = "2019-03-20 22:31:53 +0000";
layers = (
{
hints = (
{
place = "{33, 132}";
type = Stem;
},
{
place = "{559, 121}";
type = Stem;
},
{
place = "{635, 122}";
type = Stem;
}
);
layerId = UUID0;
paths = (
{
closed = 1;
nodes = (
"598 168 OFFCURVE",
"603 127 OFFCURVE",
"610 86 CURVE SMOOTH",
"612 75 LINE SMOOTH",
"622 14 OFFCURVE",
"633 -60 OFFCURVE",
"695 -60 CURVE SMOOTH",
"717 -60 OFFCURVE",
"758 -12 OFFCURVE",
"758 14 CURVE SMOOTH",
"758 85 OFFCURVE",
"730 160 OFFCURVE",
"730 232 CURVE SMOOTH",
"730 264 OFFCURVE",
"735 293 OFFCURVE",
"754 324 CURVE SMOOTH",
"755 327 OFFCURVE",
"757 333 OFFCURVE",
"757 335 CURVE SMOOTH",
"757 341 OFFCURVE",
"754 350 OFFCURVE",
"750 355 CURVE",
"695 408 OFFCURVE",
"686 475 OFFCURVE",
"678 542 CURVE SMOOTH",
"678 546 OFFCURVE",
"677 549 OFFCURVE",
"677 553 CURVE SMOOTH",
"675 581 OFFCURVE",
"630 608 OFFCURVE",
"609 608 CURVE SMOOTH",
"568 608 OFFCURVE",
"556 570 OFFCURVE",
"556 530 CURVE SMOOTH",
"556 505 OFFCURVE",
"560 483 OFFCURVE",
"560 460 CURVE SMOOTH",
"560 350 LINE",
"178 256 LINE",
"170 377 OFFCURVE",
"178 533 OFFCURVE",
"108 533 CURVE SMOOTH",
"71 533 OFFCURVE",
"23 480 OFFCURVE",
"23 440 CURVE SMOOTH",
"23 429 OFFCURVE",
"25 417 OFFCURVE",
"26 405 CURVE",
"45 285 OFFCURVE",
"65 165 OFFCURVE",
"86 43 CURVE",
"99 -12 OFFCURVE",
"125 -76 OFFCURVE",
"174 -76 CURVE SMOOTH",
"222 -76 OFFCURVE",
"238 -42 OFFCURVE",
"238 -11 CURVE SMOOTH",
"238 31 OFFCURVE",
"222 80 OFFCURVE",
"210 133 CURVE",
"590 216 LINE"
);
}
);
width = 786;
}
);
unicode = 0068;
},
{
glyphname = i;
lastChange = "2019-03-20 22:31:53 +0000";
layers = (
{
hints = (
{
place = "{28, 200}";
type = Stem;
},
{
place = "{198, 132}";
type = Stem;
},
{
horizontal = 1;
place = "{590, 142}";
type = Stem;
}
);
layerId = UUID0;
paths = (
{
closed = 1;
nodes = (
"154 60 OFFCURVE",
"182 -190 OFFCURVE",
"273 -190 CURVE SMOOTH",
"323 -190 OFFCURVE",
"337 -149 OFFCURVE",
"337 -127 CURVE SMOOTH",
"337 -104 OFFCURVE",
"330 -80 OFFCURVE",
"324 -56 CURVE",
"316 46 OFFCURVE",
"307 148 OFFCURVE",
"298 250 CURVE",
"298 287 OFFCURVE",
"295 353 OFFCURVE",
"247 353 CURVE SMOOTH",
"213 353 OFFCURVE",
"191 318 OFFCURVE",
"167 292 CURVE SMOOTH",
"154 279 OFFCURVE",
"154 197 OFFCURVE",
"154 167 CURVE SMOOTH",
"154 167 LINE"
);
},
{
closed = 1;
nodes = (
"131 585 OFFCURVE",
"150 582 OFFCURVE",
"165 582 CURVE SMOOTH",
"211 582 OFFCURVE",
"228 598 OFFCURVE",
"228 635 CURVE SMOOTH",
"228 684 OFFCURVE",
"173 732 OFFCURVE",
"113 732 CURVE SMOOTH",
"63 732 OFFCURVE",
"28 700 OFFCURVE",
"28 650 CURVE SMOOTH",
"28 598 OFFCURVE",
"60 588 OFFCURVE",
"104 588 CURVE SMOOTH",
"110 588 LINE"
);
}
);
width = 366;
}
);
unicode = 0069;
},
{
glyphname = j;
lastChange = "2019-03-20 22:31:53 +0000";
layers = (
{
hints = (
{
place = "{188, 141}";
type = Stem;
},
{
horizontal = 1;
place = "{-124, 794}";
type = Stem;
}
);
layerId = UUID0;
paths = (
{
closed = 1;
nodes = (
"155 106 OFFCURVE",
"133 126 OFFCURVE",
"110 126 CURVE SMOOTH",
"63 126 OFFCURVE",
"29 94 OFFCURVE",
"29 40 CURVE SMOOTH",
"29 -48 OFFCURVE",
"83 -124 OFFCURVE",
"151 -124 CURVE SMOOTH",
"233 -124 OFFCURVE",
"329 -5 OFFCURVE",
"329 108 CURVE SMOOTH",
"329 117 OFFCURVE",
"327 128 OFFCURVE",
"325 136 CURVE",
"307 292 OFFCURVE",
"276 445 OFFCURVE",
"250 598 CURVE",
"245 642 OFFCURVE",
"204 670 OFFCURVE",
"165 670 CURVE SMOOTH",
"142 670 OFFCURVE",
"119 640 OFFCURVE",
"119 608 CURVE SMOOTH",
"119 585 OFFCURVE",
"127 562 OFFCURVE",
"132 539 CURVE SMOOTH",
"160 411 OFFCURVE",
"188 283 OFFCURVE",
"188 147 CURVE SMOOTH",
"188 128 OFFCURVE",
"188 108 OFFCURVE",
"187 90 CURVE",
"187 90 LINE"
);
}
);
width = 354;
}
);
unicode = 006A;
},
{
glyphname = k;
lastChange = "2019-03-20 22:31:53 +0000";
layers = (
{
hints = (
{
place = "{65, 146}";
type = Stem;
},
{
horizontal = 1;
place = "{38, 118}";
type = Stem;
},
{
horizontal = 1;
place = "{559, -20}";
target = down;
type = TopGhost;
}
);
layerId = UUID0;
paths = (
{
closed = 1;
nodes = (
"710 171 OFFCURVE",
"681 173 OFFCURVE",
"658 178 CURVE SMOOTH",
"524 208 OFFCURVE",
"386 225 OFFCURVE",
"259 280 CURVE",
"318 363 OFFCURVE",
"386 402 OFFCURVE",
"463 430 CURVE SMOOTH",
"497 443 OFFCURVE",
"530 460 OFFCURVE",
"530 493 CURVE SMOOTH",
"530 540 OFFCURVE",
"493 560 OFFCURVE",
"467 560 CURVE SMOOTH",
"382 560 OFFCURVE",
"247 462 OFFCURVE",
"176 415 CURVE",
"150 499 OFFCURVE",
"148 556 OFFCURVE",
"70 556 CURVE",
"46 553 OFFCURVE",
"25 510 OFFCURVE",
"25 493 CURVE SMOOTH",
"25 457 OFFCURVE",
"45 239 OFFCURVE",
"61 75 CURVE",
"75 17 OFFCURVE",
"91 -16 OFFCURVE",
"126 -16 CURVE SMOOTH",
"165 -16 OFFCURVE",
"215 23 OFFCURVE",
"215 61 CURVE SMOOTH",
"215 85 OFFCURVE",
"207 110 OFFCURVE",
"207 136 CURVE",
"618 46 LINE SMOOTH",
"637 42 OFFCURVE",
"658 37 OFFCURVE",
"678 37 CURVE SMOOTH",
"710 37 OFFCURVE",
"751 62 OFFCURVE",
"751 89 CURVE SMOOTH",
"751 111 OFFCURVE",
"735 140 OFFCURVE",
"718 159 CURVE",
"723 156 LINE"
);
}
);
width = 783;
}
);
unicode = 006B;
},
{
glyphname = l;
lastChange = "2019-03-20 22:31:53 +0000";
layers = (
{
hints = (
{
place = "{25, 627}";
type = Stem;
},
{
horizontal = 1;
place = "{-59, 137}";
type = Stem;
}
);
layerId = UUID0;
paths = (
{
closed = 1;
nodes = (
"401 -34 OFFCURVE",
"503 6 OFFCURVE",
"608 45 CURVE SMOOTH",
"632 54 OFFCURVE",
"652 78 OFFCURVE",
"652 105 CURVE SMOOTH",
"652 150 OFFCURVE",
"616 170 OFFCURVE",
"588 170 CURVE SMOOTH",
"550 170 OFFCURVE",
"503 146 OFFCURVE",
"463 131 CURVE SMOOTH",
"409 111 OFFCURVE",
"335 78 OFFCURVE",
"288 78 CURVE SMOOTH",
"210 78 OFFCURVE",
"197 197 OFFCURVE",
"187 288 CURVE SMOOTH",
"184 312 LINE SMOOTH",
"171 411 OFFCURVE",
"175 601 OFFCURVE",
"90 601 CURVE SMOOTH",
"40 601 OFFCURVE",
"25 570 OFFCURVE",
"25 539 CURVE SMOOTH",
"25 528 OFFCURVE",
"26 519 OFFCURVE",
"28 508 CURVE",
"45 363 OFFCURVE",
"43 216 OFFCURVE",
"89 80 CURVE SMOOTH",
"121 -16 OFFCURVE",
"191 -59 OFFCURVE",
"320 -59 CURVE",
"320 -59 LINE"
);
}
);
width = 678;
}
);
unicode = 006C;
},
{
glyphname = m;
lastChange = "2019-03-20 22:31:53 +0000";
layers = (
{
hints = (
{
place = "{29, 142}";
type = Stem;
},
{
place = "{136, 151}";
type = Stem;
}
);
layerId = UUID0;
paths = (
{
closed = 1;
nodes = (
"880 446 OFFCURVE",
"899 392 OFFCURVE",
"907 355 CURVE SMOOTH",
"925 273 OFFCURVE",
"927 29 OFFCURVE",
"1034 29 CURVE SMOOTH",
"1075 29 OFFCURVE",
"1119 66 OFFCURVE",
"1119 105 CURVE SMOOTH",
"1119 118 OFFCURVE",
"1114 131 OFFCURVE",
"1104 145 CURVE",
"1055 198 OFFCURVE",
"1062 265 OFFCURVE",
"1049 327 CURVE SMOOTH",
"1025 442 OFFCURVE",
"1022 622 OFFCURVE",
"845 622 CURVE SMOOTH",
"707 622 OFFCURVE",
"628 470 OFFCURVE",
"564 373 CURVE",
"502 463 OFFCURVE",
"455 565 OFFCURVE",
"374 565 CURVE SMOOTH",
"309 565 OFFCURVE",
"258 490 OFFCURVE",
"210 412 CURVE",
"178 507 OFFCURVE",
"165 613 OFFCURVE",
"91 613 CURVE SMOOTH",
"48 613 OFFCURVE",
"23 582 OFFCURVE",
"23 525 CURVE SMOOTH",
"23 463 OFFCURVE",
"68 386 OFFCURVE",
"82 317 CURVE SMOOTH",
"102 215 OFFCURVE",
"117 111 OFFCURVE",
"133 9 CURVE SMOOTH",
"140 -34 OFFCURVE",
"147 -81 OFFCURVE",
"205 -81 CURVE SMOOTH",
"301 -81 OFFCURVE",
"287 85 OFFCURVE",
"309 183 CURVE SMOOTH",
"324 250 OFFCURVE",
"325 324 OFFCURVE",
"386 406 CURVE",
"460 162 LINE SMOOTH",
"481 93 OFFCURVE",
"491 -3 OFFCURVE",
"564 -3 CURVE SMOOTH",
"590 -3 OFFCURVE",
"616 13 OFFCURVE",
"632 45 CURVE SMOOTH",
"645 71 OFFCURVE",
"642 106 OFFCURVE",
"650 134 CURVE SMOOTH",
"673 213 OFFCURVE",
"695 296 OFFCURVE",
"729 373 CURVE SMOOTH",
"749 420 OFFCURVE",
"782 466 OFFCURVE",
"867 480 CURVE",
"867 480 LINE"
);
}
);
width = 1151;
}
);
unicode = 006D;
},
{
glyphname = n;
lastChange = "2019-03-20 22:31:53 +0000";
layers = (
{
hints = (
{
place = "{43, 147}";
type = Stem;
},
{
place = "{627, 133}";
type = Stem;
}
);
layerId = UUID0;
paths = (
{
closed = 1;
nodes = (
"324 134 OFFCURVE",
"465 -85 OFFCURVE",
"592 -85 CURVE SMOOTH",
"749 -85 OFFCURVE",
"760 199 OFFCURVE",
"760 442 CURVE SMOOTH",
"760 576 LINE SMOOTH",
"760 609 OFFCURVE",
"727 665 OFFCURVE",
"694 665 CURVE SMOOTH",
"631 665 OFFCURVE",
"625 573 OFFCURVE",
"623 538 CURVE SMOOTH",
"615 365 OFFCURVE",
"618 245 OFFCURVE",
"587 45 CURVE",
"423 212 OFFCURVE",
"318 352 OFFCURVE",
"187 516 CURVE SMOOTH",
"167 540 OFFCURVE",
"122 556 OFFCURVE",
"86 556 CURVE SMOOTH",
"40 556 OFFCURVE",
"23 523 OFFCURVE",
"23 502 CURVE SMOOTH",
"23 463 OFFCURVE",
"55 397 OFFCURVE",
"55 333 CURVE SMOOTH",
"55 300 LINE SMOOTH",
"55 245 OFFCURVE",
"54 190 OFFCURVE",
"54 134 CURVE SMOOTH",
"54 55 OFFCURVE",
"61 -127 OFFCURVE",
"155 -127 CURVE SMOOTH",
"203 -127 OFFCURVE",
"235 -88 OFFCURVE",
"235 -56 CURVE SMOOTH",
"235 -42 OFFCURVE",
"231 -27 OFFCURVE",
"222 -12 CURVE",
"196 25 OFFCURVE",
"188 63 OFFCURVE",
"188 103 CURVE SMOOTH",
"188 153 OFFCURVE",
"203 204 OFFCURVE",
"212 258 CURVE",
"218 264 LINE"
);
}
);
width = 789;
}
);
unicode = 006E;
},
{
glyphname = o;
lastChange = "2019-03-20 22:31:53 +0000";
layers = (
{
hints = (
{
place = "{25, 125}";
type = Stem;
},
{
place = "{412, 144}";
type = Stem;
},
{
horizontal = 1;
place = "{-81, 139}";
type = Stem;
},
{
horizontal = 1;
place = "{489, 139}";
type = Stem;
}
);
layerId = UUID0;
paths = (
{
closed = 1;
nodes = (
"29 150 OFFCURVE",
"23 103 OFFCURVE",
"48 66 CURVE",
"82 -28 OFFCURVE",
"153 -81 OFFCURVE",
"238 -81 CURVE SMOOTH",
"272 -81 OFFCURVE",
"307 -72 OFFCURVE",
"344 -54 CURVE SMOOTH",
"487 17 OFFCURVE",
"556 146 OFFCURVE",
"556 278 CURVE SMOOTH",
"556 434 OFFCURVE",
"439 629 OFFCURVE",
"278 629 CURVE SMOOTH",
"126 629 OFFCURVE",
"49 496 OFFCURVE",
"25 255 CURVE",
"25 255 LINE"
);
},
{
closed = 1;
nodes = (
"340 451 OFFCURVE",
"412 412 OFFCURVE",
"412 285 CURVE SMOOTH",
"412 188 OFFCURVE",
"341 58 OFFCURVE",
"236 58 CURVE SMOOTH",
"191 58 OFFCURVE",
"150 122 OFFCURVE",
"150 222 CURVE SMOOTH",
"150 313 OFFCURVE",
"184 417 OFFCURVE",
"241 488 CURVE",
"247 491 LINE"
);
}
);
width = 585;
}
);
unicode = 006F;
},
{
glyphname = p;
lastChange = "2019-03-20 22:31:53 +0000";
layers = (
{
hints = (
{
place = "{155, 123}";
type = Stem;
}
);
layerId = UUID0;
paths = (
{
closed = 1;
nodes = (
"432 136 OFFCURVE",
"511 230 OFFCURVE",
"511 375 CURVE SMOOTH",
"511 537 OFFCURVE",
"401 649 OFFCURVE",
"275 649 CURVE SMOOTH",
"156 649 OFFCURVE",
"48 562 OFFCURVE",
"25 457 CURVE",
"25 450 LINE SMOOTH",
"25 385 OFFCURVE",
"142 21 OFFCURVE",
"153 -65 CURVE SMOOTH",
"155 -82 OFFCURVE",
"199 -105 OFFCURVE",
"225 -105 CURVE SMOOTH",
"241 -105 OFFCURVE",
"269 -77 OFFCURVE",
"278 -56 CURVE",
"288 -28 OFFCURVE",
"283 4 OFFCURVE",
"288 42 CURVE",
"288 42 LINE"
);
},
{
closed = 1;
nodes = (
"203 483 LINE",
"239 495 OFFCURVE",
"267 500 OFFCURVE",
"288 500 CURVE SMOOTH",
"341 500 OFFCURVE",
"375 439 OFFCURVE",
"375 377 CURVE SMOOTH",
"375 310 OFFCURVE",
"333 245 OFFCURVE",
"250 193 CURVE",
"250 193 LINE"
);
}
);
width = 542;
}
);
unicode = 0070;
},
{
glyphname = q;
lastChange = "2019-03-20 22:31:53 +0000";
layers = (
{
hints = (
{
place = "{28, 140}";
type = Stem;
}
);
layerId = UUID0;
paths = (
{
closed = 1;
nodes = (
"707 126 OFFCURVE",
"738 195 OFFCURVE",
"738 293 CURVE SMOOTH",
"738 397 OFFCURVE",
"698 499 OFFCURVE",
"618 582 CURVE SMOOTH",
"562 640 OFFCURVE",
"502 700 OFFCURVE",
"425 700 CURVE SMOOTH",
"394 700 OFFCURVE",
"358 690 OFFCURVE",
"320 665 CURVE",
"317 662 OFFCURVE",
"313 662 OFFCURVE",
"308 662 CURVE SMOOTH",
"303 662 OFFCURVE",
"299 662 OFFCURVE",
"297 661 CURVE",
"212 649 OFFCURVE",
"156 601 OFFCURVE",
"117 532 CURVE SMOOTH",
"68 445 OFFCURVE",
"25 297 OFFCURVE",
"25 196 CURVE SMOOTH",
"25 -20 OFFCURVE",
"130 -161 OFFCURVE",
"312 -161 CURVE SMOOTH",
"392 -161 OFFCURVE",
"460 -122 OFFCURVE",
"533 -87 CURVE",
"572 -107 OFFCURVE",
"616 -142 OFFCURVE",
"655 -142 CURVE SMOOTH",
"681 -142 OFFCURVE",
"726 -121 OFFCURVE",
"726 -93 CURVE SMOOTH",
"726 -45 OFFCURVE",
"703 -25 OFFCURVE",
"647 20 CURVE",
"650 23 LINE"
);
},
{
closed = 1;
nodes = (
"335 487 OFFCURVE",
"361 467 OFFCURVE",
"382 467 CURVE SMOOTH",
"403 467 OFFCURVE",
"420 484 OFFCURVE",
"454 518 CURVE SMOOTH",
"463 527 LINE",
"551 460 OFFCURVE",
"596 383 OFFCURVE",
"596 301 CURVE SMOOTH",
"596 255 OFFCURVE",
"582 205 OFFCURVE",
"551 154 CURVE",
"505 212 OFFCURVE",
"458 297 OFFCURVE",
"406 297 CURVE SMOOTH",
"369 297 OFFCURVE",
"346 261 OFFCURVE",
"346 241 CURVE SMOOTH",
"346 195 OFFCURVE",
"415 113 OFFCURVE",
"457 49 CURVE",
"415 1 OFFCURVE",
"370 -27 OFFCURVE",
"318 -27 CURVE SMOOTH",
"193 -27 OFFCURVE",
"163 77 OFFCURVE",
"163 168 CURVE SMOOTH",
"163 298 OFFCURVE",
"184 423 OFFCURVE",
"285 524 CURVE SMOOTH",
"288 527 LINE"
);
}
);
width = 769;
}
);
unicode = 0071;
},
{
glyphname = r;
lastChange = "2019-03-20 22:31:53 +0000";
layers = (
{
hints = (
{
place = "{28, 122}";
type = Stem;
},
{
place = "{88, 150}";
type = Stem;
},
{
horizontal = 1;
place = "{-5, 135}";
type = Stem;
}
);
layerId = UUID0;
paths = (
{
closed = 1;
nodes = (
"580 253 OFFCURVE",
"636 301 OFFCURVE",
"680 401 CURVE SMOOTH",
"690 425 OFFCURVE",
"694 448 OFFCURVE",
"694 470 CURVE SMOOTH",
"694 550 OFFCURVE",
"633 608 OFFCURVE",
"543 608 CURVE SMOOTH",
"398 608 OFFCURVE",
"308 509 OFFCURVE",
"212 403 CURVE SMOOTH",
"193 382 LINE",
"167 458 OFFCURVE",
"151 553 OFFCURVE",
"91 553 CURVE SMOOTH",
"58 553 OFFCURVE",
"28 511 OFFCURVE",
"28 475 CURVE",
"43 318 OFFCURVE",
"66 163 OFFCURVE",
"86 6 CURVE SMOOTH",
"90 -27 OFFCURVE",
"120 -72 OFFCURVE",
"154 -72 CURVE SMOOTH",
"210 -72 OFFCURVE",
"225 -10 OFFCURVE",
"235 35 CURVE SMOOTH",
"238 48 LINE",
"253 45 LINE SMOOTH",
"393 18 OFFCURVE",
"505 -3 OFFCURVE",
"660 -3 CURVE SMOOTH",
"700 -3 OFFCURVE",
"738 -11 OFFCURVE",
"778 -11 CURVE",
"802 3 OFFCURVE",
"814 25 OFFCURVE",
"814 48 CURVE SMOOTH",
"814 77 OFFCURVE",
"797 106 OFFCURVE",
"765 123 CURVE",
"463 151 LINE"
);
},
{
closed = 1;
nodes = (
"335 345 OFFCURVE",
"405 435 OFFCURVE",
"533 467 CURVE",
"533 370 OFFCURVE",
"434 275 OFFCURVE",
"268 222 CURVE",
"268 222 LINE"
);
}
);
width = 842;
}
);
unicode = 0072;
},
{
glyphname = s;
lastChange = "2019-03-20 22:31:53 +0000";
layers = (
{
hints = (
{
place = "{300, 137}";
type = Stem;
},
{
horizontal = 1;
place = "{-104, 139}";
type = Stem;
},
{
horizontal = 1;
place = "{448, -20}";
target = down;
type = TopGhost;
},
{
horizontal = 1;
place = "{516, 136}";
type = Stem;
}
);
layerId = UUID0;
paths = (
{
closed = 1;
nodes = (
"155 491 OFFCURVE",
"236 516 OFFCURVE",
"260 516 CURVE SMOOTH",
"285 516 OFFCURVE",
"330 466 OFFCURVE",
"381 466 CURVE SMOOTH",
"408 466 OFFCURVE",
"430 523 OFFCURVE",
"430 550 CURVE SMOOTH",
"430 621 OFFCURVE",
"340 652 OFFCURVE",
"275 652 CURVE SMOOTH",
"153 652 OFFCURVE",
"23 564 OFFCURVE",
"23 454 CURVE SMOOTH",
"23 374 OFFCURVE",
"75 330 OFFCURVE",
"171 247 CURVE SMOOTH",
"203 219 LINE",
"244 187 OFFCURVE",
"300 127 OFFCURVE",
"300 86 CURVE SMOOTH",
"300 61 OFFCURVE",
"270 35 OFFCURVE",
"250 35 CURVE SMOOTH",
"212 35 OFFCURVE",
"180 98 OFFCURVE",
"162 98 CURVE",
"145 99 OFFCURVE",
"126 102 OFFCURVE",
"108 102 CURVE SMOOTH",
"75 102 OFFCURVE",
"65 82 OFFCURVE",
"65 48 CURVE SMOOTH",
"65 -32 OFFCURVE",
"173 -104 OFFCURVE",
"252 -104 CURVE SMOOTH",
"366 -104 OFFCURVE",
"437 -19 OFFCURVE",
"437 73 CURVE SMOOTH",
"437 188 OFFCURVE",
"360 270 OFFCURVE",
"281 336 CURVE SMOOTH",
"238 372 OFFCURVE",
"155 420 OFFCURVE",
"155 448 CURVE SMOOTH",
"155 448 LINE"
);
}
);
width = 470;
}
);
unicode = 0073;
},
{
glyphname = t;
lastChange = "2019-03-20 22:31:53 +0000";
layers = (
{
hints = (
{
place = "{307, 132}";
type = Stem;
}
);
layerId = UUID0;
paths = (
{
closed = 1;
nodes = (
"318 248 OFFCURVE",
"330 103 OFFCURVE",
"345 -42 CURVE SMOOTH",
"352 -107 OFFCURVE",
"386 -144 OFFCURVE",
"448 -144 CURVE",
"468 -139 OFFCURVE",
"485 -90 OFFCURVE",
"485 -70 CURVE SMOOTH",
"485 -44 OFFCURVE",
"477 -17 OFFCURVE",
"474 8 CURVE SMOOTH",
"459 145 OFFCURVE",
"437 283 OFFCURVE",
"437 420 CURVE SMOOTH",
"437 524 OFFCURVE",
"483 513 OFFCURVE",
"657 553 CURVE SMOOTH",
"697 562 OFFCURVE",
"734 576 OFFCURVE",
"734 618 CURVE SMOOTH",
"734 675 OFFCURVE",
"694 687 OFFCURVE",
"656 687 CURVE SMOOTH",
"642 687 OFFCURVE",
"625 687 OFFCURVE",
"610 684 CURVE",
"437 636 OFFCURVE",
"261 590 OFFCURVE",
"88 542 CURVE SMOOTH",
"55 533 OFFCURVE",
"26 513 OFFCURVE",
"26 480 CURVE SMOOTH",
"26 430 OFFCURVE",
"61 412 OFFCURVE",
"90 412 CURVE SMOOTH",
"145 412 OFFCURVE",
"225 442 OFFCURVE",
"304 462 CURVE",
"307 392 LINE"
);
}
);
width = 763;
}
);
unicode = 0074;
},
{
glyphname = u;
lastChange = "2019-03-20 22:31:53 +0000";
layers = (
{
hints = (
{
place = "{31, 115}";
type = Stem;
},
{
place = "{335, 162}";
type = Stem;
}
);
layerId = UUID0;
paths = (
{
closed = 1;
nodes = (
"259 23 OFFCURVE",
"222 93 OFFCURVE",
"210 140 CURVE SMOOTH",
"187 232 OFFCURVE",
"171 327 OFFCURVE",
"154 420 CURVE SMOOTH",
"147 459 OFFCURVE",
"160 550 OFFCURVE",
"93 550 CURVE SMOOTH",
"25 550 OFFCURVE",
"25 459 OFFCURVE",
"25 390 CURVE SMOOTH",
"25 233 OFFCURVE",
"55 57 OFFCURVE",
"175 -63 CURVE SMOOTH",
"212 -100 OFFCURVE",
"256 -116 OFFCURVE",
"296 -116 CURVE SMOOTH",
"462 -116 OFFCURVE",
"514 127 OFFCURVE",
"514 332 CURVE SMOOTH",
"514 432 OFFCURVE",
"508 551 OFFCURVE",
"438 630 CURVE SMOOTH",
"423 647 OFFCURVE",
"405 660 OFFCURVE",
"385 660 CURVE SMOOTH",
"353 660 OFFCURVE",
"330 624 OFFCURVE",
"330 588 CURVE SMOOTH",
"330 581 OFFCURVE",
"332 570 OFFCURVE",
"333 562 CURVE",
"363 491 OFFCURVE",
"374 420 OFFCURVE",
"374 349 CURVE SMOOTH",
"374 272 OFFCURVE",
"363 196 OFFCURVE",
"350 120 CURVE SMOOTH",
"344 86 OFFCURVE",
"339 23 OFFCURVE",
"304 23 CURVE SMOOTH",
"304 23 LINE"
);
}
);
width = 545;
}
);
unicode = 0075;
},
{
glyphname = v;
lastChange = "2019-03-20 22:31:53 +0000";
layers = (
{
hints = (
{
horizontal = 1;
place = "{537, -20}";
target = down;
type = TopGhost;
}
);
layerId = UUID0;
paths = (
{
closed = 1;
nodes = (
"295 88 LINE",
"245 208 OFFCURVE",
"211 324 OFFCURVE",
"172 443 CURVE SMOOTH",
"154 497 OFFCURVE",
"136 537 OFFCURVE",
"68 537 CURVE",
"40 531 OFFCURVE",
"26 482 OFFCURVE",
"26 458 CURVE SMOOTH",
"26 446 OFFCURVE",
"29 429 OFFCURVE",
"33 420 CURVE",
"41 394 LINE SMOOTH",
"75 281 OFFCURVE",
"109 168 OFFCURVE",
"153 61 CURVE SMOOTH",
"184 -17 OFFCURVE",
"258 -101 OFFCURVE",
"318 -101 CURVE SMOOTH",
"378 -101 OFFCURVE",
"430 -45 OFFCURVE",
"446 37 CURVE SMOOTH",
"479 210 OFFCURVE",
"510 382 OFFCURVE",
"542 555 CURVE",
"543 565 OFFCURVE",
"544 575 OFFCURVE",
"544 585 CURVE SMOOTH",
"544 616 OFFCURVE",
"530 649 OFFCURVE",
"477 649 CURVE SMOOTH",
"400 649 OFFCURVE",
"388 496 OFFCURVE",
"372 406 CURVE SMOOTH",
"311 60 LINE"
);
}
);
width = 579;
}
);
unicode = 0076;
},
{
glyphname = w;
lastChange = "2019-03-20 22:31:53 +0000";
layers = (
{
hints = (
{
place = "{822, 130}";
type = Stem;
}
);
layerId = UUID0;
paths = (
{
closed = 1;
nodes = (
"313 220 LINE SMOOTH",
"252 341 OFFCURVE",
"218 408 OFFCURVE",
"158 505 CURVE SMOOTH",
"142 531 OFFCURVE",
"119 552 OFFCURVE",
"90 552 CURVE SMOOTH",
"58 552 OFFCURVE",
"26 522 OFFCURVE",
"26 495 CURVE SMOOTH",
"26 477 OFFCURVE",
"37 455 OFFCURVE",
"49 437 CURVE SMOOTH",
"139 303 OFFCURVE",
"185 153 OFFCURVE",
"228 1 CURVE",
"245 -76 OFFCURVE",
"278 -119 OFFCURVE",
"320 -119 CURVE SMOOTH",
"385 -119 OFFCURVE",
"413 -22 OFFCURVE",
"435 55 CURVE SMOOTH",
"437 60 OFFCURVE",
"439 66 OFFCURVE",
"440 71 CURVE SMOOTH",
"460 139 OFFCURVE",
"477 207 OFFCURVE",
"493 273 CURVE",
"528 233 OFFCURVE",
"542 193 OFFCURVE",
"560 156 CURVE SMOOTH",
"613 49 OFFCURVE",
"673 -101 OFFCURVE",
"769 -101 CURVE SMOOTH",
"924 -101 OFFCURVE",
"953 373 OFFCURVE",
"953 587 CURVE SMOOTH",
"953 625 OFFCURVE",
"939 660 OFFCURVE",
"888 660 CURVE SMOOTH",
"805 660 OFFCURVE",
"819 523 OFFCURVE",
"810 440 CURVE SMOOTH",
"797 327 OFFCURVE",
"780 215 OFFCURVE",
"766 102 CURVE SMOOTH",
"761 64 LINE",
"738 114 OFFCURVE",
"695 199 OFFCURVE",
"672 250 CURVE SMOOTH",
"630 343 OFFCURVE",
"592 474 OFFCURVE",
"502 474 CURVE SMOOTH",
"407 474 OFFCURVE",
"369 344 OFFCURVE",
"330 210 CURVE SMOOTH",
"325 193 LINE",
"324 198 LINE"
);
}
);
width = 981;
}
);
unicode = 0077;
},
{
glyphname = x;
lastChange = "2019-03-20 22:31:53 +0000";
layers = (
{
hints = (
{
place = "{25, 602}";
type = Stem;
},
{
horizontal = 1;
place = "{-39, 21}";
target = up;
type = BottomGhost;
}
);
layerId = UUID0;
paths = (
{
closed = 1;
nodes = (
"224 153 OFFCURVE",
"159 73 OFFCURVE",
"91 -17 CURVE",
"80 -34 OFFCURVE",
"71 -51 OFFCURVE",
"71 -67 CURVE SMOOTH",
"71 -90 OFFCURVE",
"90 -113 OFFCURVE",
"131 -113 CURVE SMOOTH",
"203 -113 OFFCURVE",
"230 -62 OFFCURVE",
"266 -16 CURVE SMOOTH",
"303 31 OFFCURVE",
"338 80 OFFCURVE",
"377 128 CURVE",
"442 54 OFFCURVE",
"505 -39 OFFCURVE",
"562 -39 CURVE SMOOTH",
"592 -39 OFFCURVE",
"627 -5 OFFCURVE",
"627 23 CURVE SMOOTH",
"627 71 OFFCURVE",
"516 184 OFFCURVE",
"451 261 CURVE",
"497 349 OFFCURVE",
"535 432 OFFCURVE",
"583 508 CURVE SMOOTH",
"605 543 OFFCURVE",
"618 570 OFFCURVE",
"618 592 CURVE SMOOTH",
"618 622 OFFCURVE",
"587 657 OFFCURVE",
"548 657 CURVE SMOOTH",
"485 657 OFFCURVE",
"451 560 OFFCURVE",
"409 480 CURVE SMOOTH",
"394 451 OFFCURVE",
"375 423 OFFCURVE",
"353 385 CURVE",
"275 465 OFFCURVE",
"222 527 OFFCURVE",
"131 579 CURVE SMOOTH",
"119 585 OFFCURVE",
"108 588 OFFCURVE",
"97 588 CURVE SMOOTH",
"65 588 OFFCURVE",
"25 553 OFFCURVE",
"25 508 CURVE SMOOTH",
"25 483 OFFCURVE",
"41 462 OFFCURVE",
"70 452 CURVE SMOOTH",
"170 418 OFFCURVE",
"211 329 OFFCURVE",
"278 252 CURVE",
"278 252 LINE"
);
}
);
width = 653;
}
);
unicode = 0078;
},
{
glyphname = y;
lastChange = "2019-03-20 22:31:53 +0000";
layers = (
{
hints = (
{
place = "{425, 137}";
type = Stem;
}
);
layerId = UUID0;
paths = (
{
closed = 1;
nodes = (
"383 105 OFFCURVE",
"370 29 OFFCURVE",
"370 -42 CURVE SMOOTH",
"370 -80 OFFCURVE",
"385 -117 OFFCURVE",
"437 -117 CURVE SMOOTH",
"514 -117 OFFCURVE",
"513 23 OFFCURVE",
"525 111 CURVE",
"539 284 OFFCURVE",
"556 439 OFFCURVE",
"559 593 CURVE SMOOTH",
"559 621 OFFCURVE",
"528 657 OFFCURVE",
"510 657 CURVE SMOOTH",
"374 657 OFFCURVE",
"458 428 OFFCURVE",
"392 324 CURVE",
"325 382 OFFCURVE",
"267 434 OFFCURVE",
"211 489 CURVE SMOOTH",
"171 527 OFFCURVE",
"140 608 OFFCURVE",
"90 608 CURVE SMOOTH",
"52 608 OFFCURVE",
"28 573 OFFCURVE",
"28 550 CURVE SMOOTH",
"28 448 OFFCURVE",
"248 283 OFFCURVE",
"390 155 CURVE",
"390 155 LINE"
);
}
);
width = 588;
}
);
unicode = 0079;
},
{
glyphname = z;
lastChange = "2019-03-20 22:31:53 +0000";
layers = (
{
hints = (
{
horizontal = 1;
place = "{635, -20}";
target = down;
type = TopGhost;
}
);
layerId = UUID0;
paths = (
{
closed = 1;
nodes = (
"434 395 OFFCURVE",
"408 355 OFFCURVE",
"389 316 CURVE SMOOTH",
"344 225 OFFCURVE",
"256 103 OFFCURVE",
"256 18 CURVE SMOOTH",
"256 -67 OFFCURVE",
"324 -92 OFFCURVE",
"434 -92 CURVE SMOOTH",
"575 -92 OFFCURVE",
"792 -30 OFFCURVE",
"792 58 CURVE SMOOTH",
"792 94 OFFCURVE",
"770 114 OFFCURVE",
"741 114 CURVE SMOOTH",
"687 114 OFFCURVE",
"572 51 OFFCURVE",
"468 51 CURVE SMOOTH",
"448 51 OFFCURVE",
"429 51 OFFCURVE",
"408 57 CURVE",
"474 182 OFFCURVE",
"533 278 OFFCURVE",
"567 398 CURVE",
"572 420 OFFCURVE",
"573 440 OFFCURVE",
"573 460 CURVE SMOOTH",
"573 568 OFFCURVE",
"496 630 OFFCURVE",
"363 630 CURVE SMOOTH",
"225 630 OFFCURVE",
"28 550 OFFCURVE",
"28 474 CURVE SMOOTH",
"28 439 OFFCURVE",
"51 417 OFFCURVE",
"78 417 CURVE SMOOTH",
"123 417 OFFCURVE",
"239 491 OFFCURVE",
"335 491 CURVE SMOOTH",
"386 491 OFFCURVE",
"434 490 OFFCURVE",
"434 443 CURVE SMOOTH",
"434 443 LINE"
);
}
);
width = 819;
}
);
unicode = 007A;
},
{
glyphname = zero;
lastChange = "2019-03-20 22:31:53 +0000";
layers = (
{
hints = (
{
place = "{12, 136}";
type = Stem;
},
{
place = "{575, 134}";
type = Stem;
},
{
horizontal = 1;
place = "{-103, 131}";
type = Stem;
},
{
horizontal = 1;
place = "{552, 164}";
type = Stem;
}
);
layerId = UUID0;
paths = (
{
closed = 1;
nodes = (
"14 320 OFFCURVE",
"12 294 OFFCURVE",
"12 270 CURVE SMOOTH",
"12 171 OFFCURVE",
"46 97 OFFCURVE",
"94 32 CURVE SMOOTH",
"158 -56 OFFCURVE",
"256 -103 OFFCURVE",
"359 -103 CURVE SMOOTH",
"568 -103 OFFCURVE",
"709 68 OFFCURVE",
"709 225 CURVE SMOOTH",
"709 420 OFFCURVE",
"555 576 OFFCURVE",
"401 669 CURVE SMOOTH",
"349 700 OFFCURVE",
"302 716 OFFCURVE",
"261 716 CURVE SMOOTH",
"195 716 OFFCURVE",
"143 676 OFFCURVE",
"101 592 CURVE SMOOTH",
"56 504 OFFCURVE",
"27 404 OFFCURVE",
"18 347 CURVE SMOOTH",
"18 347 LINE"
);
},
{
closed = 1;
nodes = (
"149 340 OFFCURVE",
"165 393 OFFCURVE",
"179 445 CURVE SMOOTH",
"199 515 OFFCURVE",
"244 552 OFFCURVE",
"298 552 CURVE SMOOTH",
"408 552 OFFCURVE",
"575 369 OFFCURVE",
"575 225 CURVE SMOOTH",
"575 128 OFFCURVE",
"493 28 OFFCURVE",
"356 28 CURVE SMOOTH",
"268 28 OFFCURVE",
"193 87 OFFCURVE",
"167 187 CURVE SMOOTH",
"158 220 OFFCURVE",
"148 251 OFFCURVE",
"148 289 CURVE SMOOTH",
"148 289 LINE"
);
}
);
width = 765;
}
);
unicode = 0030;
},
{
glyphname = one;
lastChange = "2019-03-20 22:31:53 +0000";
layers = (
{
hints = (
{
place = "{319, 128}";
type = Stem;
},
{
horizontal = 1;
place = "{-27, 126}";
type = Stem;
}
);
layerId = UUID0;
paths = (
{
closed = 1;
nodes = (
"448 182 OFFCURVE",
"447 243 OFFCURVE",
"447 304 CURVE SMOOTH",
"447 374 OFFCURVE",
"448 430 OFFCURVE",
"448 488 CURVE SMOOTH",
"448 531 LINE SMOOTH",
"448 634 OFFCURVE",
"443 748 OFFCURVE",
"358 748 CURVE SMOOTH",
"278 748 OFFCURVE",
"156 611 OFFCURVE",
"74 532 CURVE SMOOTH",
"61 519 OFFCURVE",
"47 501 OFFCURVE",
"47 486 CURVE SMOOTH",
"47 446 OFFCURVE",
"50 405 OFFCURVE",
"90 405 CURVE SMOOTH",
"159 405 OFFCURVE",
"202 486 OFFCURVE",
"251 529 CURVE SMOOTH",
"267 543 OFFCURVE",
"291 551 OFFCURVE",
"319 567 CURVE",
"316 391 OFFCURVE",
"314 273 OFFCURVE",
"309 100 CURVE",
"258 100 OFFCURVE",
"209 99 OFFCURVE",
"162 99 CURVE SMOOTH",
"135 99 OFFCURVE",
"108 100 OFFCURVE",
"81 100 CURVE SMOOTH",
"46 100 OFFCURVE",
"14 89 OFFCURVE",
"14 40 CURVE SMOOTH",
"14 -20 OFFCURVE",
"93 -27 OFFCURVE",
"148 -27 CURVE SMOOTH",
"273 -27 OFFCURVE",
"401 -17 OFFCURVE",
"526 -9 CURVE SMOOTH",
"599 -4 OFFCURVE",
"716 3 OFFCURVE",
"716 74 CURVE SMOOTH",
"716 122 OFFCURVE",
"680 135 OFFCURVE",
"648 135 CURVE SMOOTH",
"587 135 OFFCURVE",
"523 123 OFFCURVE",
"448 114 CURVE",
"448 114 LINE"
);
}
);
width = 751;
}
);
unicode = 0031;
},
{
glyphname = two;
lastChange = "2019-03-20 22:31:53 +0000";
layers = (
{
hints = (
{
place = "{315, 126}";
type = Stem;
},
{
horizontal = 1;
place = "{-16, 121}";
type = Stem;
},
{
horizontal = 1;
place = "{-16, 21}";
target = up;
type = BottomGhost;
},
{
horizontal = 1;
place = "{592, 159}";
type = Stem;
}
);
layerId = UUID0;
paths = (
{
closed = 1;
nodes = (
"312 592 OFFCURVE",
"315 589 OFFCURVE",
"315 582 CURVE SMOOTH",
"315 551 OFFCURVE",
"245 457 OFFCURVE",
"219 408 CURVE SMOOTH",
"163 303 OFFCURVE",
"45 160 OFFCURVE",
"45 75 CURVE SMOOTH",
"45 14 OFFCURVE",
"93 -16 OFFCURVE",
"189 -16 CURVE SMOOTH",
"274 -16 OFFCURVE",
"360 -1 OFFCURVE",
"444 11 CURVE",
"482 20 OFFCURVE",
"527 54 OFFCURVE",
"527 96 CURVE SMOOTH",
"527 128 OFFCURVE",
"495 148 OFFCURVE",
"467 148 CURVE SMOOTH",
"444 148 OFFCURVE",
"420 135 OFFCURVE",
"397 133 CURVE",
"337 123 OFFCURVE",
"276 115 OFFCURVE",
"194 105 CURVE",
"223 156 OFFCURVE",
"238 188 OFFCURVE",
"254 219 CURVE SMOOTH",
"322 352 OFFCURVE",
"441 502 OFFCURVE",
"441 631 CURVE SMOOTH",
"441 701 OFFCURVE",
"393 751 OFFCURVE",
"326 751 CURVE SMOOTH",
"200 751 OFFCURVE",
"90 657 OFFCURVE",
"28 557 CURVE SMOOTH",
"19 543 OFFCURVE",
"15 527 OFFCURVE",
"15 513 CURVE SMOOTH",
"15 475 OFFCURVE",
"41 448 OFFCURVE",
"76 448 CURVE SMOOTH",
"101 448 OFFCURVE",
"119 466 OFFCURVE",
"133 490 CURVE SMOOTH",
"167 549 OFFCURVE",
"248 592 OFFCURVE",
"299 592 CURVE SMOOTH",
"299 592 LINE"
);
}
);
width = 554;
}
);
unicode = 0032;
},
{
glyphname = three;
lastChange = "2019-03-20 22:31:53 +0000";
layers = (
{
hints = (
{
place = "{426, 132}";
type = Stem;
},
{
horizontal = 1;
place = "{-155, 132}";
type = Stem;
},
{
horizontal = 1;
place = "{597, 131}";
type = Stem;
}
);
layerId = UUID0;
paths = (
{
closed = 1;
nodes = (
"251 540 OFFCURVE",
"227 498 OFFCURVE",
"196 459 CURVE",
"164 412 OFFCURVE",
"102 383 OFFCURVE",
"102 319 CURVE SMOOTH",
"102 287 OFFCURVE",
"151 266 OFFCURVE",
"186 266 CURVE SMOOTH",
"220 266 OFFCURVE",
"256 277 OFFCURVE",
"290 277 CURVE SMOOTH",
"354 277 OFFCURVE",
"426 226 OFFCURVE",
"426 140 CURVE SMOOTH",
"426 113 OFFCURVE",
"417 87 OFFCURVE",
"397 66 CURVE SMOOTH",
"364 31 OFFCURVE",
"287 -23 OFFCURVE",
"256 -23 CURVE SMOOTH",
"217 -23 OFFCURVE",
"198 17 OFFCURVE",
"149 17 CURVE SMOOTH",
"106 17 OFFCURVE",
"99 -16 OFFCURVE",
"99 -47 CURVE SMOOTH",
"99 -114 OFFCURVE",
"174 -155 OFFCURVE",
"245 -155 CURVE SMOOTH",
"421 -155 OFFCURVE",
"558 11 OFFCURVE",
"558 144 CURVE SMOOTH",
"558 239 OFFCURVE",
"504 331 OFFCURVE",
"401 385 CURVE SMOOTH",
"383 394 OFFCURVE",
"363 403 OFFCURVE",
"344 413 CURVE",
"371 480 OFFCURVE",
"414 546 OFFCURVE",
"414 610 CURVE SMOOTH",
"414 680 OFFCURVE",
"362 728 OFFCURVE",
"281 728 CURVE SMOOTH",
"173 728 OFFCURVE",
"24 649 OFFCURVE",
"24 559 CURVE SMOOTH",
"24 517 OFFCURVE",
"49 479 OFFCURVE",
"80 479 CURVE SMOOTH",
"101 479 OFFCURVE",
"119 495 OFFCURVE",
"131 518 CURVE SMOOTH",
"159 573 OFFCURVE",
"207 592 OFFCURVE",
"288 597 CURVE",
"288 597 LINE"
);
}
);
width = 587;
}
);
unicode = 0033;
},
{
glyphname = four;
lastChange = "2019-03-20 22:31:53 +0000";
layers = (
{
hints = (
{
place = "{517, 146}";
type = Stem;
},
{
place = "{532, 129}";
type = Stem;
},
{
place = "{549, 137}";
type = Stem;
},
{
horizontal = 1;
place = "{-78, 21}";
target = up;
type = BottomGhost;
},
{
horizontal = 1;
place = "{206, 136}";
type = Stem;
}
);
layerId = UUID0;
paths = (
{
closed = 1;
nodes = (
"538 165 OFFCURVE",
"544 130 OFFCURVE",
"547 95 CURVE",
"547 94 OFFCURVE",
"547 92 OFFCURVE",
"548 93 CURVE",
"548 93 OFFCURVE",
"549 88 OFFCURVE",
"549 52 CURVE SMOOTH",
"549 -14 OFFCURVE",
"555 -78 OFFCURVE",
"619 -78 CURVE SMOOTH",
"686 -78 OFFCURVE",
"686 -12 OFFCURVE",
"686 43 CURVE SMOOTH",
"686 52 LINE SMOOTH",
"686 103 OFFCURVE",
"674 113 OFFCURVE",
"674 164 CURVE SMOOTH",
"674 204 OFFCURVE",
"661 356 OFFCURVE",
"661 396 CURVE SMOOTH",
"661 522 OFFCURVE",
"663 527 OFFCURVE",
"663 657 CURVE SMOOTH",
"663 701 OFFCURVE",
"638 739 OFFCURVE",
"589 739 CURVE SMOOTH",
"549 739 OFFCURVE",
"529 710 OFFCURVE",
"524 673 CURVE",
"520 592 OFFCURVE",
"517 508 OFFCURVE",
"517 428 CURVE SMOOTH",
"517 402 OFFCURVE",
"518 375 OFFCURVE",
"518 347 CURVE",
"486 344 OFFCURVE",
"455 342 OFFCURVE",
"425 342 CURVE SMOOTH",
"356 342 OFFCURVE",
"289 350 OFFCURVE",
"214 364 CURVE",
"289 421 OFFCURVE",
"352 461 OFFCURVE",
"405 511 CURVE SMOOTH",
"439 543 OFFCURVE",
"485 608 OFFCURVE",
"485 649 CURVE SMOOTH",
"485 680 OFFCURVE",
"454 713 OFFCURVE",
"408 713 CURVE SMOOTH",
"381 713 OFFCURVE",
"360 695 OFFCURVE",
"356 665 CURVE SMOOTH",
"349 615 OFFCURVE",
"312 592 OFFCURVE",
"275 568 CURVE SMOOTH",
"211 526 OFFCURVE",
"145 486 OFFCURVE",
"79 447 CURVE SMOOTH",
"43 426 OFFCURVE",
"11 402 OFFCURVE",
"11 358 CURVE SMOOTH",
"11 299 OFFCURVE",
"54 269 OFFCURVE",
"101 257 CURVE SMOOTH",
"167 240 OFFCURVE",
"237 227 OFFCURVE",
"306 219 CURVE SMOOTH",
"379 211 OFFCURVE",
"453 210 OFFCURVE",
"532 206 CURVE",
"532 206 LINE"
);
}
);
width = 722;
}
);
unicode = 0034;
},
{
glyphname = five;
lastChange = "2019-03-20 22:31:53 +0000";
layers = (
{
hints = (
{
place = "{94, 138}";
type = Stem;
},
{
place = "{420, 135}";
type = Stem;
},
{
horizontal = 1;
place = "{-70, 21}";
target = up;
type = BottomGhost;
},
{
horizontal = 1;
place = "{376, 140}";
type = Stem;
}
);
layerId = UUID0;
paths = (
{
closed = 1;
nodes = (
"232 568 OFFCURVE",
"261 572 OFFCURVE",
"292 574 CURVE SMOOTH",
"375 581 OFFCURVE",
"503 569 OFFCURVE",
"503 647 CURVE SMOOTH",
"503 686 OFFCURVE",
"482 712 OFFCURVE",
"444 712 CURVE SMOOTH",
"440 712 OFFCURVE",
"436 712 OFFCURVE",
"432 711 CURVE SMOOTH",
"320 697 OFFCURVE",
"207 683 OFFCURVE",
"95 660 CURVE SMOOTH",
"67 654 OFFCURVE",
"45 631 OFFCURVE",
"45 607 CURVE SMOOTH",
"45 596 OFFCURVE",
"49 585 OFFCURVE",
"59 576 CURVE SMOOTH",
"86 552 OFFCURVE",
"94 528 OFFCURVE",
"94 504 CURVE SMOOTH",
"94 442 OFFCURVE",
"49 381 OFFCURVE",
"49 320 CURVE SMOOTH",
"49 295 OFFCURVE",
"74 255 OFFCURVE",
"116 255 CURVE SMOOTH",
"182 255 OFFCURVE",
"216 376 OFFCURVE",
"297 376 CURVE SMOOTH",
"364 376 OFFCURVE",
"420 284 OFFCURVE",
"420 223 CURVE SMOOTH",
"420 137 OFFCURVE",
"260 74 OFFCURVE",
"159 66 CURVE",
"140 67 OFFCURVE",
"125 137 OFFCURVE",
"88 137 CURVE SMOOTH",
"49 137 OFFCURVE",
"19 80 OFFCURVE",
"19 44 CURVE SMOOTH",
"19 -22 OFFCURVE",
"70 -70 OFFCURVE",
"143 -70 CURVE SMOOTH",
"149 -70 OFFCURVE",
"155 -70 OFFCURVE",
"162 -69 CURVE SMOOTH",
"327 -50 OFFCURVE",
"555 50 OFFCURVE",
"555 223 CURVE SMOOTH",
"555 249 OFFCURVE",
"550 277 OFFCURVE",
"539 306 CURVE SMOOTH",
"487 438 OFFCURVE",
"397 516 OFFCURVE",
"246 516 CURVE SMOOTH",
"232 516 LINE"
);
}
);
width = 601;
}
);
unicode = 0035;
},
{
glyphname = six;
lastChange = "2019-03-20 22:31:53 +0000";
layers = (
{
hints = (
{
place = "{21, 134}";
type = Stem;
},
{
place = "{51, 123}";
type = Stem;
},
{
place = "{621, 127}";
type = Stem;
},
{
horizontal = 1;
place = "{-38, 21}";
target = up;
type = BottomGhost;
},
{
horizontal = 1;
place = "{18, 128}";
type = Stem;
},
{
horizontal = 1;
place = "{398, 118}";
type = Stem;
}
);
layerId = UUID0;
paths = (
{
closed = 1;
nodes = (
"553 112 OFFCURVE",
"603 143 OFFCURVE",
"637 184 CURVE SMOOTH",
"680 236 OFFCURVE",
"748 329 OFFCURVE",
"748 388 CURVE SMOOTH",
"748 448 OFFCURVE",
"680 516 OFFCURVE",
"615 516 CURVE SMOOTH",
"560 516 OFFCURVE",
"479 456 OFFCURVE",
"442 394 CURVE SMOOTH",
"391 308 OFFCURVE",
"369 146 OFFCURVE",
"294 146 CURVE SMOOTH",
"284 146 OFFCURVE",
"272 148 OFFCURVE",
"260 153 CURVE SMOOTH",
"180 182 OFFCURVE",
"155 255 OFFCURVE",
"155 337 CURVE SMOOTH",
"155 429 OFFCURVE",
"174 519 OFFCURVE",
"174 611 CURVE SMOOTH",
"174 646 OFFCURVE",
"161 678 OFFCURVE",
"126 678 CURVE SMOOTH",
"102 678 OFFCURVE",
"55 651 OFFCURVE",
"51 618 CURVE SMOOTH",
"39 527 OFFCURVE",
"21 435 OFFCURVE",
"21 344 CURVE SMOOTH",
"21 146 OFFCURVE",
"109 24 OFFCURVE",
"276 18 CURVE SMOOTH",
"285 18 LINE SMOOTH",
"329 16 OFFCURVE",
"365 15 OFFCURVE",
"405 -19 CURVE SMOOTH",
"420 -32 OFFCURVE",
"435 -38 OFFCURVE",
"449 -38 CURVE SMOOTH",
"479 -38 OFFCURVE",
"508 -3 OFFCURVE",
"508 51 CURVE SMOOTH",
"508 60 OFFCURVE",
"507 69 OFFCURVE",
"507 77 CURVE",
"507 77 LINE"
);
},
{
closed = 1;
nodes = (
"495 210 OFFCURVE",
"492 224 OFFCURVE",
"492 234 CURVE SMOOTH",
"492 288 OFFCURVE",
"561 398 OFFCURVE",
"606 398 CURVE SMOOTH",
"612 398 OFFCURVE",
"621 394 OFFCURVE",
"621 386 CURVE SMOOTH",
"621 363 OFFCURVE",
"616 337 OFFCURVE",
"600 312 CURVE SMOOTH",
"583 286 OFFCURVE",
"529 210 OFFCURVE",
"505 210 CURVE SMOOTH",
"505 210 LINE"
);
}
);
width = 785;
}
);
unicode = 0036;
},
{
glyphname = seven;
lastChange = "2019-03-20 22:31:53 +0000";
layers = (
{
hints = (
{
place = "{473, 133}";
type = Stem;
},
{
horizontal = 1;
place = "{-23, 21}";
target = up;
type = BottomGhost;
}
);
layerId = UUID0;
paths = (
{
closed = 1;
nodes = (
"572 599 OFFCURVE",
"560 698 OFFCURVE",
"440 698 CURVE SMOOTH",
"412 698 OFFCURVE",
"377 692 OFFCURVE",
"338 679 CURVE SMOOTH",
"247 648 OFFCURVE",
"156 617 OFFCURVE",
"66 589 CURVE SMOOTH",
"33 578 OFFCURVE",
"8 561 OFFCURVE",
"8 527 CURVE SMOOTH",
"8 481 OFFCURVE",
"39 463 OFFCURVE",
"74 463 CURVE SMOOTH",
"115 463 OFFCURVE",
"157 476 OFFCURVE",
"196 489 CURVE SMOOTH",
"272 513 OFFCURVE",
"346 540 OFFCURVE",
"426 568 CURVE",
"451 521 OFFCURVE",
"459 477 OFFCURVE",
"459 434 CURVE SMOOTH",
"459 409 OFFCURVE",
"456 384 OFFCURVE",
"453 359 CURVE",
"382 338 OFFCURVE",
"316 322 OFFCURVE",
"249 299 CURVE SMOOTH",
"217 288 OFFCURVE",
"188 264 OFFCURVE",
"188 231 CURVE SMOOTH",
"188 187 OFFCURVE",
"220 170 OFFCURVE",
"243 170 CURVE SMOOTH",
"289 170 OFFCURVE",
"349 214 OFFCURVE",
"416 214 CURVE SMOOTH",
"434 214 OFFCURVE",
"454 211 OFFCURVE",
"474 206 CURVE",
"474 169 OFFCURVE",
"473 132 OFFCURVE",
"473 96 CURVE SMOOTH",
"473 89 LINE SMOOTH",
"473 43 OFFCURVE",
"473 -23 OFFCURVE",
"521 -23 CURVE SMOOTH",
"570 -23 OFFCURVE",
"606 32 OFFCURVE",
"606 76 CURVE SMOOTH",
"606 133 OFFCURVE",
"604 183 OFFCURVE",
"604 242 CURVE",
"656 248 OFFCURVE",
"692 253 OFFCURVE",
"728 259 CURVE SMOOTH",
"811 271 OFFCURVE",
"947 278 OFFCURVE",
"947 356 CURVE SMOOTH",
"947 405 OFFCURVE",
"916 418 OFFCURVE",
"891 418 CURVE SMOOTH",
"877 418 OFFCURVE",
"862 412 OFFCURVE",
"848 412 CURVE",
"769 397 OFFCURVE",
"688 389 OFFCURVE",
"601 376 CURVE",
"601 376 LINE"
);
}
);
width = 960;
}
);
unicode = 0037;
},
{
glyphname = eight;
lastChange = "2019-03-20 22:31:53 +0000";
layers = (
{
hints = (
{
place = "{96, 129}";
type = Stem;
},
{
horizontal = 1;
place = "{-104, 132}";
type = Stem;
},
{
horizontal = 1;
place = "{570, 124}";
type = Stem;
}
);
layerId = UUID0;
paths = (
{
closed = 1;
nodes = (
"349 345 OFFCURVE",
"366 364 OFFCURVE",
"386 377 CURVE SMOOTH",
"459 424 OFFCURVE",
"566 472 OFFCURVE",
"566 506 CURVE SMOOTH",
"566 524 OFFCURVE",
"551 546 OFFCURVE",
"523 580 CURVE SMOOTH",
"511 594 OFFCURVE",
"510 614 OFFCURVE",
"499 627 CURVE SMOOTH",
"480 648 OFFCURVE",
"461 679 OFFCURVE",
"437 681 CURVE",
"390 688 OFFCURVE",
"343 694 OFFCURVE",
"296 694 CURVE SMOOTH",
"156 694 OFFCURVE",
"8 634 OFFCURVE",
"8 512 CURVE SMOOTH",
"8 432 OFFCURVE",
"75 366 OFFCURVE",
"130 299 CURVE",
"114 236 OFFCURVE",
"96 190 OFFCURVE",
"96 117 CURVE SMOOTH",
"96 -21 OFFCURVE",
"167 -104 OFFCURVE",
"294 -104 CURVE SMOOTH",
"380 -104 OFFCURVE",
"477 -45 OFFCURVE",
"477 58 CURVE SMOOTH",
"477 149 OFFCURVE",
"395 227 OFFCURVE",
"321 322 CURVE",
"321 322 LINE"
);
},
{
closed = 1;
nodes = (
"190 440 OFFCURVE",
"167 469 OFFCURVE",
"141 503 CURVE SMOOTH",
"134 511 LINE",
"196 556 OFFCURVE",
"256 570 OFFCURVE",
"329 570 CURVE SMOOTH",
"355 570 OFFCURVE",
"383 568 OFFCURVE",
"414 565 CURVE",
"214 410 LINE"
);
},
{
closed = 1;
nodes = (
"290 148 OFFCURVE",
"318 105 OFFCURVE",
"344 69 CURVE",
"326 39 OFFCURVE",
"308 28 OFFCURVE",
"290 28 CURVE SMOOTH",
"256 28 OFFCURVE",
"225 62 OFFCURVE",
"225 98 CURVE SMOOTH",
"225 123 OFFCURVE",
"235 155 OFFCURVE",
"255 195 CURVE",
"255 195 LINE"
);
}
);
width = 591;
}
);
unicode = 0038;
},
{
glyphname = nine;
lastChange = "2019-03-20 22:31:53 +0000";
layers = (
{
hints = (
{
place = "{16, 141}";
type = Stem;
},
{
place = "{409, 143}";
type = Stem;
},
{
horizontal = 1;
place = "{131, 137}";
type = Stem;
},
{
horizontal = 1;
place = "{562, 131}";
type = Stem;
}
);
layerId = UUID0;
paths = (
{
closed = 1;
nodes = (
"409 196 OFFCURVE",
"409 161 OFFCURVE",
"409 127 CURVE SMOOTH",
"409 28 LINE SMOOTH",
"409 -128 OFFCURVE",
"409 -188 OFFCURVE",
"473 -188 CURVE SMOOTH",
"518 -188 OFFCURVE",
"539 -156 OFFCURVE",
"541 -72 CURVE SMOOTH",
"546 109 OFFCURVE",
"552 291 OFFCURVE",
"552 473 CURVE SMOOTH",
"552 592 OFFCURVE",
"450 693 OFFCURVE",
"328 693 CURVE SMOOTH",
"167 693 OFFCURVE",
"55 505 OFFCURVE",
"22 356 CURVE SMOOTH",
"18 338 OFFCURVE",
"16 320 OFFCURVE",
"16 303 CURVE SMOOTH",
"16 222 OFFCURVE",
"83 131 OFFCURVE",
"185 131 CURVE SMOOTH",
"258 131 OFFCURVE",
"314 176 OFFCURVE",
"410 233 CURVE",
"410 233 LINE"
);
},
{
closed = 1;
nodes = (
"418 510 OFFCURVE",
"420 497 OFFCURVE",
"420 485 CURVE SMOOTH",
"420 405 OFFCURVE",
"326 336 OFFCURVE",
"252 291 CURVE SMOOTH",
"234 280 OFFCURVE",
"211 268 OFFCURVE",
"192 268 CURVE SMOOTH",
"162 268 OFFCURVE",
"157 296 OFFCURVE",
"157 329 CURVE SMOOTH",
"157 372 OFFCURVE",
"260 560 OFFCURVE",
"339 562 CURVE SMOOTH",
"364 562 OFFCURVE",
"400 558 OFFCURVE",
"413 522 CURVE SMOOTH",
"413 522 LINE"
);
}
);
width = 597;
}
);
unicode = 0039;
},
{
glyphname = period;
lastChange = "2019-03-20 22:31:53 +0000";
layers = (
{
hints = (
{
place = "{120, 168}";
type = Stem;
},
{
horizontal = 1;
place = "{-32, 163}";
type = Stem;
},
{
horizontal = 1;
place = "{-32, 21}";
target = up;
type = BottomGhost;
}
);
layerId = UUID0;
paths = (
{
closed = 1;
nodes = (
"142 130 OFFCURVE",
"120 102 OFFCURVE",
"120 62 CURVE SMOOTH",
"120 7 OFFCURVE",
"160 -32 OFFCURVE",
"205 -32 CURVE SMOOTH",
"256 -32 OFFCURVE",
"283 5 OFFCURVE",
"288 48 CURVE",
"288 92 OFFCURVE",
"232 131 OFFCURVE",
"176 131 CURVE",
"176 131 LINE"
);
}
);
width = 344;
}
);
unicode = 002E;
},
{
glyphname = comma;
lastChange = "2019-03-20 22:31:53 +0000";
layers = (
{
hints = (
{
place = "{32, 208}";
type = Stem;
},
{
horizontal = 1;
place = "{-250, 456}";
type = Stem;
}
);
layerId = UUID0;
paths = (
{
closed = 1;
nodes = (
"215 49 OFFCURVE",
"191 206 OFFCURVE",
"114 206 CURVE SMOOTH",
"71 206 OFFCURVE",
"52 173 OFFCURVE",
"52 156 CURVE SMOOTH",
"52 135 OFFCURVE",
"66 112 OFFCURVE",
"75 89 CURVE SMOOTH",
"92 45 OFFCURVE",
"104 10 OFFCURVE",
"104 -25 CURVE SMOOTH",
"104 -62 OFFCURVE",
"91 -99 OFFCURVE",
"56 -143 CURVE SMOOTH",
"43 -160 OFFCURVE",
"32 -176 OFFCURVE",
"32 -194 CURVE SMOOTH",
"32 -223 OFFCURVE",
"67 -250 OFFCURVE",
"93 -250 CURVE SMOOTH",
"112 -250 OFFCURVE",
"132 -241 OFFCURVE",
"149 -227 CURVE SMOOTH",
"211 -177 OFFCURVE",
"229 -107 OFFCURVE",
"240 -29 CURVE",
"240 -29 LINE"
);
}
);
width = 273;
}
);
unicode = 002C;
},
{
glyphname = colon;
lastChange = "2019-03-20 22:31:53 +0000";
layers = (
{
hints = (
{
place = "{120, 168}";
type = Stem;
},
{
horizontal = 1;
place = "{-32, 163}";
type = Stem;
},
{
horizontal = 1;
place = "{-32, 21}";
target = up;
type = BottomGhost;
},
{
horizontal = 1;
place = "{544, 146}";
type = Stem;
}
);
layerId = UUID0;
paths = (
{
closed = 1;
nodes = (
"142 130 OFFCURVE",
"120 102 OFFCURVE",
"120 62 CURVE SMOOTH",
"120 7 OFFCURVE",
"160 -32 OFFCURVE",
"205 -32 CURVE SMOOTH",
"256 -32 OFFCURVE",
"283 5 OFFCURVE",
"288 48 CURVE",
"288 92 OFFCURVE",
"232 131 OFFCURVE",
"176 131 CURVE",
"176 131 LINE"
);
},
{
closed = 1;
nodes = (
"223 564 OFFCURVE",
"235 615 OFFCURVE",
"235 632 CURVE SMOOTH",
"235 659 OFFCURVE",
"204 690 OFFCURVE",
"174 690 CURVE SMOOTH",
"113 690 OFFCURVE",
"100 616 OFFCURVE",
"100 607 CURVE SMOOTH",
"100 575 OFFCURVE",
"125 546 OFFCURVE",
"175 544 CURVE",
"175 544 LINE"
);
}
);
width = 358;
}
);
unicode = 003A;
},
{
glyphname = semicolon;
lastChange = "2019-03-20 22:31:53 +0000";
layers = (
{
hints = (
{
place = "{31, 134}";
type = Stem;
},
{
place = "{105, 141}";
type = Stem;
},
{
horizontal = 1;
place = "{539, 123}";
type = Stem;
}
);
layerId = UUID0;
paths = (
{
closed = 1;
nodes = (
"237 183 OFFCURVE",
"207 301 OFFCURVE",
"127 301 CURVE SMOOTH",
"84 301 OFFCURVE",
"65 268 OFFCURVE",
"65 251 CURVE SMOOTH",
"65 230 OFFCURVE",
"79 207 OFFCURVE",
"88 184 CURVE SMOOTH",
"103 145 OFFCURVE",
"105 143 OFFCURVE",
"105 116 CURVE SMOOTH",
"105 63 OFFCURVE",
"99 19 OFFCURVE",
"61 -29 CURVE SMOOTH",
"48 -46 OFFCURVE",
"37 -62 OFFCURVE",
"37 -80 CURVE SMOOTH",
"37 -109 OFFCURVE",
"72 -136 OFFCURVE",
"98 -136 CURVE SMOOTH",
"179 -136 OFFCURVE",
"246 -12 OFFCURVE",
"246 66 CURVE SMOOTH",
"246 72 OFFCURVE",
"245 78 OFFCURVE",
"245 85 CURVE SMOOTH",
"245 85 LINE"
);
},
{
closed = 1;
nodes = (
"32 617 OFFCURVE",
"31 609 OFFCURVE",
"31 605 CURVE SMOOTH",
"31 572 OFFCURVE",
"72 539 OFFCURVE",
"108 539 CURVE SMOOTH",
"144 539 OFFCURVE",
"165 557 OFFCURVE",
"165 591 CURVE SMOOTH",
"165 622 OFFCURVE",
"133 662 OFFCURVE",
"93 662 CURVE SMOOTH",
"67 662 OFFCURVE",
"41 647 OFFCURVE",
"32 620 CURVE",
"32 620 LINE"
);
}
);
width = 322;
}
);
unicode = 003B;
},
{
glyphname = exclam;
lastChange = "2019-03-20 22:31:53 +0000";
layers = (
{
hints = (
{
place = "{128, 127}";
type = Stem;
},
{
horizontal = 1;
place = "{-97, 21}";
target = up;
type = BottomGhost;
}
);
layerId = UUID0;
paths = (
{
closed = 1;
nodes = (
"69 489 OFFCURVE",
"73 399 OFFCURVE",
"85 307 CURVE SMOOTH",
"92 252 OFFCURVE",
"111 175 OFFCURVE",
"185 175 CURVE SMOOTH",
"212 175 OFFCURVE",
"232 210 OFFCURVE",
"232 246 CURVE SMOOTH",
"232 301 OFFCURVE",
"213 354 OFFCURVE",
"207 410 CURVE SMOOTH",
"197 504 OFFCURVE",
"192 598 OFFCURVE",
"181 691 CURVE SMOOTH",
"177 723 OFFCURVE",
"161 756 OFFCURVE",
"124 756 CURVE SMOOTH",
"64 756 OFFCURVE",
"61 704 OFFCURVE",
"61 651 CURVE SMOOTH",
"61 627 OFFCURVE",
"62 602 OFFCURVE",
"62 575 CURVE",
"62 575 LINE"
);
},
{
closed = 1;
nodes = (
"230 46 OFFCURVE",
"224 31 OFFCURVE",
"199 40 CURVE SMOOTH",
"195 41 OFFCURVE",
"192 41 OFFCURVE",
"188 41 CURVE SMOOTH",
"158 41 OFFCURVE",
"128 3 OFFCURVE",
"128 -31 CURVE SMOOTH",
"128 -67 OFFCURVE",
"149 -97 OFFCURVE",
"177 -97 CURVE SMOOTH",
"181 -97 OFFCURVE",
"187 -96 OFFCURVE",
"192 -94 CURVE SMOOTH",
"240 -78 OFFCURVE",
"255 -68 OFFCURVE",
"255 -32 CURVE SMOOTH",
"255 -23 OFFCURVE",
"253 -13 OFFCURVE",
"250 -5 CURVE SMOOTH",
"250 -5 LINE"
);
}
);
width = 326;
}
);
unicode = 0021;
},
{
glyphname = question;
lastChange = "2019-03-20 22:31:53 +0000";
layers = (
{
hints = (
{
place = "{196, 136}";
type = Stem;
},
{
place = "{239, 140}";
type = Stem;
},
{
horizontal = 1;
place = "{-86, 123}";
type = Stem;
},
{
horizontal = 1;
place = "{-86, 21}";
target = up;
type = BottomGhost;
}
);
layerId = UUID0;
paths = (
{
closed = 1;
nodes = (
"300 466 OFFCURVE",
"196 388 OFFCURVE",
"196 260 CURVE SMOOTH",
"196 201 OFFCURVE",
"201 128 OFFCURVE",
"284 128 CURVE SMOOTH",
"319 128 OFFCURVE",
"347 137 OFFCURVE",
"347 188 CURVE SMOOTH",
"347 214 OFFCURVE",
"331 227 OFFCURVE",
"331 241 CURVE SMOOTH",
"331 248 OFFCURVE",
"332 255 OFFCURVE",
"332 264 CURVE SMOOTH",
"332 379 OFFCURVE",
"537 498 OFFCURVE",
"537 627 CURVE SMOOTH",
"537 687 OFFCURVE",
"492 732 OFFCURVE",
"417 732 CURVE SMOOTH",
"328 732 OFFCURVE",
"232 700 OFFCURVE",
"144 678 CURVE SMOOTH",
"85 663 OFFCURVE",
"8 623 OFFCURVE",
"8 552 CURVE SMOOTH",
"8 511 OFFCURVE",
"41 495 OFFCURVE",
"75 495 CURVE SMOOTH",
"97 495 OFFCURVE",
"133 501 OFFCURVE",
"147 522 CURVE",
"208 596 OFFCURVE",
"294 587 OFFCURVE",
"396 603 CURVE",
"396 603 LINE"
);
},
{
closed = 1;
nodes = (
"374 -35 OFFCURVE",
"379 -26 OFFCURVE",
"379 -14 CURVE SMOOTH",
"379 25 OFFCURVE",
"333 37 OFFCURVE",
"296 37 CURVE SMOOTH",
"264 37 OFFCURVE",
"239 21 OFFCURVE",
"239 -8 CURVE SMOOTH",
"239 -57 OFFCURVE",
"271 -86 OFFCURVE",
"309 -86 CURVE SMOOTH",
"333 -86 OFFCURVE",
"357 -74 OFFCURVE",
"369 -48 CURVE SMOOTH",
"369 -48 LINE"
);
}
);
width = 563;
}
);
unicode = 003F;
},
{
glyphname = bullet;
lastChange = "2019-03-20 22:31:53 +0000";
layers = (
{
layerId = UUID0;
paths = (
{
closed = 1;
nodes = (
"86 421 OFFCURVE",
"26 381 OFFCURVE",
"26 318 CURVE SMOOTH",
"26 231 OFFCURVE",
"89 170 OFFCURVE",
"160 170 CURVE SMOOTH",
"240 170 OFFCURVE",
"282 228 OFFCURVE",
"290 296 CURVE",
"290 365 OFFCURVE",
"227 422 OFFCURVE",
"139 422 CURVE",
"139 422 LINE"
);
}
);
width = 382;
}
);
unicode = 2022;
},
{
glyphname = asterisk;
lastChange = "2019-03-20 22:31:53 +0000";
layers = (
{
hints = (
{
place = "{317, 124}";
type = Stem;
},
{
horizontal = 1;
place = "{438, -20}";
target = down;
type = TopGhost;
}
);
layerId = UUID0;
paths = (
{
closed = 1;
nodes = (
"199 177 OFFCURVE",
"193 149 OFFCURVE",
"193 124 CURVE SMOOTH",
"193 75 OFFCURVE",
"215 40 OFFCURVE",
"253 40 CURVE SMOOTH",
"288 40 OFFCURVE",
"352 155 OFFCURVE",
"368 193 CURVE",
"398 151 OFFCURVE",
"461 76 OFFCURVE",
"521 76 CURVE SMOOTH",
"567 76 OFFCURVE",
"591 108 OFFCURVE",
"591 132 CURVE SMOOTH",
"591 172 OFFCURVE",
"543 217 OFFCURVE",
"499 271 CURVE",
"545 283 LINE SMOOTH",
"721 328 OFFCURVE",
"725 329 OFFCURVE",
"725 386 CURVE SMOOTH",
"725 421 OFFCURVE",
"702 438 OFFCURVE",
"654 438 CURVE SMOOTH",
"592 438 OFFCURVE",
"550 422 OFFCURVE",
"458 402 CURVE",
"446 423 OFFCURVE",
"441 442 OFFCURVE",
"441 460 CURVE SMOOTH",
"441 534 OFFCURVE",
"498 576 OFFCURVE",
"498 655 CURVE SMOOTH",
"498 683 OFFCURVE",
"479 703 OFFCURVE",
"444 705 CURVE",
"384 705 OFFCURVE",
"340 667 OFFCURVE",
"331 603 CURVE",
"324 570 OFFCURVE",
"317 552 OFFCURVE",
"317 509 CURVE SMOOTH",
"317 482 OFFCURVE",
"316 455 OFFCURVE",
"312 430 CURVE",
"242 501 OFFCURVE",
"231 503 OFFCURVE",
"211 576 CURVE SMOOTH",
"202 607 OFFCURVE",
"186 633 OFFCURVE",
"152 633 CURVE SMOOTH",
"109 633 OFFCURVE",
"90 602 OFFCURVE",
"90 573 CURVE SMOOTH",
"90 491 OFFCURVE",
"167 415 OFFCURVE",
"215 342 CURVE",
"162 333 OFFCURVE",
"122 325 OFFCURVE",
"82 322 CURVE",
"47 317 OFFCURVE",
"18 304 OFFCURVE",
"18 267 CURVE SMOOTH",
"18 213 OFFCURVE",
"66 205 OFFCURVE",
"113 205 CURVE SMOOTH",
"129 205 OFFCURVE",
"202 207 OFFCURVE",
"211 207 CURVE",
"211 207 LINE"
);
}
);
width = 765;
}
);
unicode = 002A;
},
{
glyphname = numbersign;
lastChange = "2019-03-20 22:31:53 +0000";
layers = (
{
hints = (
{
place = "{271, 139}";
type = Stem;
},
{
place = "{499, 136}";
type = Stem;
},
{
horizontal = 1;
place = "{-33, 21}";
target = up;
type = BottomGhost;
},
{
horizontal = 1;
place = "{-31, 21}";
target = up;
type = BottomGhost;
},
{
horizontal = 1;
place = "{482, -20}";
target = down;
type = TopGhost;
}
);
layerId = UUID0;
paths = (
{
closed = 1;
nodes = (
"551 79 OFFCURVE",
"560 -31 OFFCURVE",
"629 -31 CURVE SMOOTH",
"681 -31 OFFCURVE",
"694 3 OFFCURVE",
"694 34 CURVE SMOOTH",
"694 85 OFFCURVE",
"678 140 OFFCURVE",
"668 195 CURVE",
"769 219 OFFCURVE",
"904 225 OFFCURVE",
"904 298 CURVE SMOOTH",
"904 346 OFFCURVE",
"869 362 OFFCURVE",
"840 362 CURVE SMOOTH",
"785 362 OFFCURVE",
"724 338 OFFCURVE",
"670 338 CURVE SMOOTH",
"644 338 OFFCURVE",
"635 349 OFFCURVE",
"635 367 CURVE SMOOTH",
"635 376 OFFCURVE",
"638 388 OFFCURVE",
"642 400 CURVE",
"707 410 OFFCURVE",
"804 402 OFFCURVE",
"804 473 CURVE SMOOTH",
"804 538 OFFCURVE",
"747 539 OFFCURVE",
"691 539 CURVE SMOOTH",
"664 539 OFFCURVE",
"637 538 OFFCURVE",
"609 538 CURVE",
"602 562 LINE SMOOTH",
"571 671 OFFCURVE",
"551 742 OFFCURVE",
"494 742 CURVE SMOOTH",
"455 742 OFFCURVE",
"429 714 OFFCURVE",
"429 679 CURVE SMOOTH",
"429 644 OFFCURVE",
"456 583 OFFCURVE",
"479 520 CURVE",
"439 515 OFFCURVE",
"416 513 OFFCURVE",
"390 510 CURVE",
"369 599 OFFCURVE",
"364 717 OFFCURVE",
"292 717 CURVE SMOOTH",
"243 717 OFFCURVE",
"231 685 OFFCURVE",
"231 659 CURVE SMOOTH",
"231 646 OFFCURVE",
"233 632 OFFCURVE",
"236 618 CURVE SMOOTH",
"245 575 OFFCURVE",
"248 529 OFFCURVE",
"253 482 CURVE",
"145 459 OFFCURVE",
"10 456 OFFCURVE",
"10 385 CURVE SMOOTH",
"10 335 OFFCURVE",
"41 323 OFFCURVE",
"69 323 CURVE SMOOTH",
"80 323 OFFCURVE",
"91 324 OFFCURVE",
"103 326 CURVE SMOOTH",
"158 335 OFFCURVE",
"209 340 OFFCURVE",
"259 348 CURVE",
"265 331 OFFCURVE",
"269 317 OFFCURVE",
"269 306 CURVE SMOOTH",
"269 255 OFFCURVE",
"187 280 OFFCURVE",
"146 255 CURVE SMOOTH",
"125 242 OFFCURVE",
"101 214 OFFCURVE",
"101 194 CURVE SMOOTH",
"101 153 OFFCURVE",
"164 135 OFFCURVE",
"197 135 CURVE SMOOTH",
"220 135 OFFCURVE",
"244 138 OFFCURVE",
"271 138 CURVE",
"276 95 OFFCURVE",
"274 54 OFFCURVE",
"289 19 CURVE",
"298 -10 OFFCURVE",
"335 -33 OFFCURVE",
"359 -33 CURVE SMOOTH",
"407 -33 OFFCURVE",
"410 19 OFFCURVE",
"410 71 CURVE SMOOTH",
"410 160 LINE",
"455 167 OFFCURVE",
"486 170 OFFCURVE",
"528 176 CURVE",
"528 176 LINE"
);
},
{
closed = 1;
nodes = (
"410 313 OFFCURVE",
"408 326 OFFCURVE",
"408 336 CURVE SMOOTH",
"408 367 OFFCURVE",
"427 380 OFFCURVE",
"456 380 CURVE SMOOTH",
"471 380 OFFCURVE",
"499 359 OFFCURVE",
"499 340 CURVE",
"493 285 OFFCURVE",
"449 310 OFFCURVE",
"415 298 CURVE",
"415 298 LINE"
);
}
);
width = 922;
}
);
unicode = 0023;
},
{
glyphname = slash;
lastChange = "2019-03-20 22:31:53 +0000";
layers = (
{
layerId = UUID0;
paths = (
{
closed = 1;
nodes = (
"213 23 OFFCURVE",
"225 40 OFFCURVE",
"407 397 CURVE SMOOTH",
"434 451 OFFCURVE",
"520 609 OFFCURVE",
"527 625 CURVE SMOOTH",
"536 645 OFFCURVE",
"543 672 OFFCURVE",
"543 697 CURVE SMOOTH",
"543 732 OFFCURVE",
"530 765 OFFCURVE",
"492 765 CURVE SMOOTH",
"452 765 OFFCURVE",
"435 742 OFFCURVE",
"408 690 CURVE SMOOTH",
"379 633 LINE SMOOTH",
"312 501 OFFCURVE",
"136 158 OFFCURVE",
"111 107 CURVE SMOOTH",
"79 44 OFFCURVE",
"55 10 OFFCURVE",
"23 -53 CURVE SMOOTH",
"17 -64 OFFCURVE",
"14 -75 OFFCURVE",
"14 -87 CURVE SMOOTH",
"14 -109 OFFCURVE",
"31 -142 OFFCURVE",
"68 -142 CURVE SMOOTH",
"93 -142 OFFCURVE",
"116 -122 OFFCURVE",
"140 -90 CURVE",
"140 -90 LINE"
);
}
);
width = 572;
}
);
unicode = 002F;
},
{
glyphname = backslash;
lastChange = "2019-03-20 22:31:53 +0000";
layers = (
{
layerId = UUID0;
paths = (
{
closed = 1;
nodes = (
"427 -94 OFFCURVE",
"450 -114 OFFCURVE",
"475 -114 CURVE SMOOTH",
"512 -114 OFFCURVE",
"529 -81 OFFCURVE",
"529 -59 CURVE SMOOTH",
"529 -47 OFFCURVE",
"526 -36 OFFCURVE",
"520 -25 CURVE SMOOTH",
"488 38 OFFCURVE",
"478 44 OFFCURVE",
"446 107 CURVE SMOOTH",
"421 158 OFFCURVE",
"245 501 OFFCURVE",
"178 633 CURVE SMOOTH",
"149 690 LINE SMOOTH",
"122 742 OFFCURVE",
"105 765 OFFCURVE",
"65 765 CURVE SMOOTH",
"27 765 OFFCURVE",
"14 732 OFFCURVE",
"14 697 CURVE SMOOTH",
"14 672 OFFCURVE",
"21 645 OFFCURVE",
"30 625 CURVE SMOOTH",
"37 609 OFFCURVE",
"123 451 OFFCURVE",
"150 397 CURVE SMOOTH",
"332 40 OFFCURVE",
"330 51 OFFCURVE",
"403 -62 CURVE",
"403 -62 LINE"
);
}
);
width = 558;
}
);
unicode = 005C;
},
{
glyphname = parenleft;
lastChange = "2019-03-20 22:31:53 +0000";
layers = (
{
hints = (
{
place = "{19, 142}";
type = Stem;
},
{
horizontal = 1;
place = "{-191, 892}";
type = Stem;
}
);
layerId = UUID0;
paths = (
{
closed = 1;
nodes = (
"20 295 OFFCURVE",
"19 287 OFFCURVE",
"19 278 CURVE SMOOTH",
"19 96 OFFCURVE",
"99 -129 OFFCURVE",
"286 -188 CURVE SMOOTH",
"292 -190 OFFCURVE",
"300 -191 OFFCURVE",
"308 -191 CURVE SMOOTH",
"349 -191 OFFCURVE",
"386 -169 OFFCURVE",
"386 -139 CURVE SMOOTH",
"386 -108 OFFCURVE",
"363 -99 OFFCURVE",
"333 -71 CURVE SMOOTH",
"275 -16 OFFCURVE",
"238 -23 OFFCURVE",
"200 49 CURVE SMOOTH",
"184 80 OFFCURVE",
"161 214 OFFCURVE",
"161 249 CURVE SMOOTH",
"161 394 OFFCURVE",
"175 442 OFFCURVE",
"178 587 CURVE",
"180 606 OFFCURVE",
"189 626 OFFCURVE",
"189 645 CURVE SMOOTH",
"189 678 OFFCURVE",
"163 701 OFFCURVE",
"143 701 CURVE SMOOTH",
"81 701 OFFCURVE",
"65 649 OFFCURVE",
"58 603 CURVE SMOOTH",
"45 515 OFFCURVE",
"34 425 OFFCURVE",
"20 304 CURVE",
"20 304 LINE"
);
}
);
width = 412;
}
);
unicode = 0028;
},
{
glyphname = parenright;
lastChange = "2019-03-20 22:31:53 +0000";
layers = (
{
hints = (
{
place = "{327, 138}";
type = Stem;
},
{
horizontal = 1;
place = "{-206, 921}";
type = Stem;
}
);
layerId = UUID0;
paths = (
{
closed = 1;
nodes = (
"459 241 OFFCURVE",
"374 519 OFFCURVE",
"241 638 CURVE SMOOTH",
"206 669 OFFCURVE",
"133 715 OFFCURVE",
"88 715 CURVE SMOOTH",
"57 715 OFFCURVE",
"18 689 OFFCURVE",
"18 647 CURVE SMOOTH",
"18 617 OFFCURVE",
"43 601 OFFCURVE",
"74 595 CURVE SMOOTH",
"134 582 OFFCURVE",
"168 539 OFFCURVE",
"199 494 CURVE SMOOTH",
"277 380 OFFCURVE",
"327 227 OFFCURVE",
"327 79 CURVE SMOOTH",
"327 13 OFFCURVE",
"317 -53 OFFCURVE",
"295 -114 CURVE SMOOTH",
"290 -127 OFFCURVE",
"287 -139 OFFCURVE",
"287 -150 CURVE SMOOTH",
"287 -176 OFFCURVE",
"310 -206 OFFCURVE",
"350 -206 CURVE SMOOTH",
"442 -206 OFFCURVE",
"445 -57 OFFCURVE",
"465 53 CURVE",
"465 53 LINE"
);
}
);
width = 503;
}
);
unicode = 0029;
},
{
glyphname = bracketleft;
lastChange = "2019-03-20 22:31:53 +0000";
layers = (
{
hints = (
{
place = "{41, 123}";
type = Stem;
},
{
horizontal = 1;
place = "{-187, 134}";
type = Stem;
},
{
horizontal = 1;
place = "{612, 128}";
type = Stem;
}
);
layerId = UUID0;
paths = (
{
closed = 1;
nodes = (
"165 46 OFFCURVE",
"164 206 OFFCURVE",
"164 342 CURVE SMOOTH",
"164 399 OFFCURVE",
"163 444 OFFCURVE",
"163 479 CURVE SMOOTH",
"163 590 OFFCURVE",
"171 607 OFFCURVE",
"233 612 CURVE",
"305 612 LINE SMOOTH",
"347 612 OFFCURVE",
"387 622 OFFCURVE",
"387 674 CURVE SMOOTH",
"387 726 OFFCURVE",
"346 740 OFFCURVE",
"303 740 CURVE SMOOTH",
"288 740 LINE SMOOTH",
"274 740 OFFCURVE",
"239 740 OFFCURVE",
"174 729 CURVE SMOOTH",
"45 706 OFFCURVE",
"45 703 OFFCURVE",
"45 578 CURVE SMOOTH",
"45 513 OFFCURVE",
"41 409 OFFCURVE",
"41 289 CURVE SMOOTH",
"41 156 OFFCURVE",
"41 12 OFFCURVE",
"43 -78 CURVE SMOOTH",
"44 -155 OFFCURVE",
"69 -187 OFFCURVE",
"136 -187 CURVE SMOOTH",
"143 -187 OFFCURVE",
"151 -187 OFFCURVE",
"160 -186 CURVE SMOOTH",
"266 -179 OFFCURVE",
"282 -177 OFFCURVE",
"377 -159 CURVE SMOOTH",
"397 -155 LINE SMOOTH",
"417 -151 OFFCURVE",
"432 -119 OFFCURVE",
"432 -99 CURVE SMOOTH",
"432 -67 OFFCURVE",
"407 -34 OFFCURVE",
"362 -34 CURVE SMOOTH",
"317 -34 OFFCURVE",
"244 -53 OFFCURVE",
"218 -53 CURVE SMOOTH",
"202 -53 OFFCURVE",
"186 -54 OFFCURVE",
"165 -57 CURVE",
"165 -57 LINE"
);
}
);
width = 567;
}
);
unicode = 005B;
},
{
glyphname = bracketright;
lastChange = "2019-03-20 22:31:53 +0000";
layers = (
{
hints = (
{
place = "{315, 127}";
type = Stem;
},
{
horizontal = 1;
place = "{617, 130}";
type = Stem;
}
);
layerId = UUID0;
paths = (
{
closed = 1;
nodes = (
"241 -23 OFFCURVE",
"142 -19 OFFCURVE",
"142 -86 CURVE SMOOTH",
"142 -137 OFFCURVE",
"173 -155 OFFCURVE",
"212 -155 CURVE SMOOTH",
"219 -155 OFFCURVE",
"225 -154 OFFCURVE",
"232 -153 CURVE SMOOTH",
"308 -146 OFFCURVE",
"317 -148 OFFCURVE",
"391 -134 CURVE SMOOTH",
"443 -124 OFFCURVE",
"456 -106 OFFCURVE",
"456 -63 CURVE SMOOTH",
"456 -56 OFFCURVE",
"455 -49 OFFCURVE",
"455 -41 CURVE SMOOTH",
"446 100 OFFCURVE",
"442 411 OFFCURVE",
"442 552 CURVE SMOOTH",
"442 601 OFFCURVE",
"499 653 OFFCURVE",
"499 689 CURVE SMOOTH",
"499 745 OFFCURVE",
"400 747 OFFCURVE",
"313 747 CURVE SMOOTH",
"269 747 OFFCURVE",
"231 745 OFFCURVE",
"167 744 CURVE SMOOTH",
"124 743 OFFCURVE",
"87 726 OFFCURVE",
"87 673 CURVE SMOOTH",
"87 633 OFFCURVE",
"126 602 OFFCURVE",
"175 602 CURVE SMOOTH",
"195 602 OFFCURVE",
"213 617 OFFCURVE",
"234 617 CURVE SMOOTH",
"282 617 OFFCURVE",
"264 620 OFFCURVE",
"315 620 CURVE",
"315 458 OFFCURVE",
"304 144 OFFCURVE",
"304 -13 CURVE",
"304 -13 LINE"
);
}
);
width = 539;
}
);
unicode = 005D;
},
{
glyphname = hyphen;
lastChange = "2019-03-20 22:31:53 +0000";
layers = (
{
hints = (
{
place = "{16, 429}";
type = Stem;
},
{
horizontal = 1;
place = "{166, 167}";
type = Stem;
}
);
layerId = UUID0;
paths = (
{
closed = 1;
nodes = (
"258 178 OFFCURVE",
"445 171 OFFCURVE",
"445 287 CURVE SMOOTH",
"445 316 OFFCURVE",
"436 333 OFFCURVE",
"383 333 CURVE SMOOTH",
"377 333 OFFCURVE",
"372 333 OFFCURVE",
"368 332 CURVE SMOOTH",
"286 321 OFFCURVE",
"204 303 OFFCURVE",
"121 286 CURVE SMOOTH",
"98 281 OFFCURVE",
"68 283 OFFCURVE",
"48 269 CURVE SMOOTH",
"31 257 OFFCURVE",
"16 229 OFFCURVE",
"16 210 CURVE SMOOTH",
"16 171 OFFCURVE",
"79 166 OFFCURVE",
"112 166 CURVE SMOOTH",
"134 166 OFFCURVE",
"158 167 OFFCURVE",
"188 167 CURVE",
"188 167 LINE"
);
}
);
width = 486;
}
);
unicode = 002D;
},
{
glyphname = endash;
lastChange = "2019-03-20 22:31:53 +0000";
layers = (
{
hints = (
{
place = "{8, 692}";
type = Stem;
},
{
horizontal = 1;
place = "{176, 162}";
type = Stem;
}
);
layerId = UUID0;
paths = (
{
closed = 1;
nodes = (
"309 184 OFFCURVE",
"544 195 OFFCURVE",
"630 210 CURVE",
"668 214 OFFCURVE",
"700 235 OFFCURVE",
"700 275 CURVE SMOOTH",
"700 327 OFFCURVE",
"663 338 OFFCURVE",
"630 338 CURVE SMOOTH",
"624 338 OFFCURVE",
"617 337 OFFCURVE",
"611 337 CURVE SMOOTH",
"483 327 OFFCURVE",
"208 313 OFFCURVE",
"79 306 CURVE SMOOTH",
"42 304 OFFCURVE",
"8 292 OFFCURVE",
"8 259 CURVE SMOOTH",
"8 234 OFFCURVE",
"40 197 OFFCURVE",
"66 190 CURVE SMOOTH",
"115 177 OFFCURVE",
"168 181 OFFCURVE",
"238 176 CURVE",
"238 176 LINE"
);
}
);
width = 731;
}
);
unicode = 2013;
},
{
glyphname = emdash;
lastChange = "2019-03-20 22:31:53 +0000";
layers = (
{
hints = (
{
place = "{3, 908}";
type = Stem;
},
{
horizontal = 1;
place = "{178, 137}";
type = Stem;
}
);
layerId = UUID0;
paths = (
{
closed = 1;
nodes = (
"221 184 OFFCURVE",
"269 178 OFFCURVE",
"669 178 CURVE SMOOTH",
"730 178 OFFCURVE",
"779 179 OFFCURVE",
"796 180 CURVE SMOOTH",
"842 182 OFFCURVE",
"911 208 OFFCURVE",
"911 253 CURVE SMOOTH",
"911 261 OFFCURVE",
"908 270 OFFCURVE",
"903 279 CURVE SMOOTH",
"884 311 OFFCURVE",
"856 315 OFFCURVE",
"800 315 CURVE SMOOTH",
"736 315 LINE SMOOTH",
"588 315 OFFCURVE",
"333 311 OFFCURVE",
"276 311 CURVE SMOOTH",
"206 311 OFFCURVE",
"138 319 OFFCURVE",
"67 319 CURVE SMOOTH",
"35 319 OFFCURVE",
"3 301 OFFCURVE",
"3 261 CURVE SMOOTH",
"3 223 OFFCURVE",
"36 207 OFFCURVE",
"87 198 CURVE",
"87 198 LINE"
);
}
);
width = 936;
}
);
unicode = 2014;
},
{
glyphname = underscore;
lastChange = "2019-03-20 22:31:53 +0000";
layers = (
{
layerId = UUID0;
paths = (
{
closed = 1;
nodes = (
"228 -113 OFFCURVE",
"182 -122 OFFCURVE",
"582 -122 CURVE SMOOTH",
"643 -122 OFFCURVE",
"692 -121 OFFCURVE",
"709 -120 CURVE SMOOTH",
"755 -118 OFFCURVE",
"824 -92 OFFCURVE",
"824 -47 CURVE SMOOTH",
"824 -39 OFFCURVE",
"821 -30 OFFCURVE",
"816 -21 CURVE SMOOTH",
"797 11 OFFCURVE",
"769 15 OFFCURVE",
"713 15 CURVE SMOOTH",
"649 15 LINE SMOOTH",
"501 15 OFFCURVE",
"340 14 OFFCURVE",
"283 14 CURVE SMOOTH",
"213 14 OFFCURVE",
"145 22 OFFCURVE",
"74 22 CURVE SMOOTH",
"42 22 OFFCURVE",
"10 4 OFFCURVE",
"10 -36 CURVE SMOOTH",
"10 -74 OFFCURVE",
"43 -90 OFFCURVE",
"94 -99 CURVE",
"94 -99 LINE"
);
}
);
width = 833;
}
);
unicode = 005F;
},
{
glyphname = quotedblleft;
lastChange = "2019-03-20 22:31:53 +0000";
layers = (
{
hints = (
{
place = "{31, 493}";
type = Stem;
},
{
horizontal = 1;
place = "{244, 456}";
type = Stem;
}
);
layerId = UUID0;
paths = (
{
closed = 1;
nodes = (
"33 459 OFFCURVE",
"62 370 OFFCURVE",
"123 308 CURVE SMOOTH",
"155 275 OFFCURVE",
"191 251 OFFCURVE",
"232 251 CURVE SMOOTH",
"241 251 OFFCURVE",
"250 252 OFFCURVE",
"259 254 CURVE SMOOTH",
"282 260 OFFCURVE",
"321 296 OFFCURVE",
"321 320 CURVE SMOOTH",
"321 337 OFFCURVE",
"295 374 OFFCURVE",
"278 377 CURVE SMOOTH",
"188 394 OFFCURVE",
"173 459 OFFCURVE",
"163 529 CURVE",
"155 569 OFFCURVE",
"162 611 OFFCURVE",
"150 648 CURVE SMOOTH",
"143 669 OFFCURVE",
"111 697 OFFCURVE",
"91 697 CURVE SMOOTH",
"62 697 OFFCURVE",
"31 639 OFFCURVE",
"31 619 CURVE SMOOTH",
"31 608 OFFCURVE",
"33 598 OFFCURVE",
"33 595 CURVE SMOOTH",
"33 595 LINE"
);
},
{
closed = 1;
nodes = (
"317 504 OFFCURVE",
"322 393 OFFCURVE",
"392 297 CURVE SMOOTH",
"410 271 OFFCURVE",
"429 244 OFFCURVE",
"459 244 CURVE SMOOTH",
"499 244 OFFCURVE",
"524 280 OFFCURVE",
"524 303 CURVE SMOOTH",
"524 320 OFFCURVE",
"516 338 OFFCURVE",
"505 356 CURVE SMOOTH",
"454 439 OFFCURVE",
"434 529 OFFCURVE",
"429 624 CURVE SMOOTH",
"427 664 OFFCURVE",
"410 700 OFFCURVE",
"361 700 CURVE SMOOTH",
"325 700 OFFCURVE",
"303 667 OFFCURVE",
"301 611 CURVE",
"301 611 LINE"
);
}
);
width = 562;
}
);
unicode = 201C;
},
{
glyphname = quotedblright;
lastChange = "2019-03-20 22:31:53 +0000";
layers = (
{
hints = (
{
place = "{81, 130}";
type = Stem;
},
{
place = "{354, 122}";
type = Stem;
},
{
horizontal = 1;
place = "{263, 447}";
type = Stem;
}
);
layerId = UUID0;
paths = (
{
closed = 1;
nodes = (
"215 294 OFFCURVE",
"251 263 OFFCURVE",
"292 263 CURVE SMOOTH",
"316 263 OFFCURVE",
"345 274 OFFCURVE",
"374 298 CURVE SMOOTH",
"454 364 OFFCURVE",
"475 438 OFFCURVE",
"475 539 CURVE SMOOTH",
"475 554 OFFCURVE",
"476 571 OFFCURVE",
"476 589 CURVE SMOOTH",
"476 647 OFFCURVE",
"469 710 OFFCURVE",
"408 710 CURVE SMOOTH",
"364 710 OFFCURVE",
"347 681 OFFCURVE",
"347 647 CURVE SMOOTH",
"347 623 OFFCURVE",
"354 598 OFFCURVE",
"354 571 CURVE SMOOTH",
"354 487 OFFCURVE",
"348 401 OFFCURVE",
"236 385 CURVE SMOOTH",
"218 382 OFFCURVE",
"202 361 OFFCURVE",
"184 349 CURVE",
"187 353 LINE"
);
},
{
closed = 1;
nodes = (
"193 438 OFFCURVE",
"205 527 OFFCURVE",
"211 616 CURVE SMOOTH",
"211 623 LINE SMOOTH",
"211 660 OFFCURVE",
"195 698 OFFCURVE",
"146 698 CURVE SMOOTH",
"82 698 OFFCURVE",
"81 638 OFFCURVE",
"81 590 CURVE SMOOTH",
"81 573 OFFCURVE",
"82 557 OFFCURVE",
"82 540 CURVE SMOOTH",
"82 486 OFFCURVE",
"80 434 OFFCURVE",
"38 390 CURVE SMOOTH",
"24 375 OFFCURVE",
"14 357 OFFCURVE",
"14 340 CURVE SMOOTH",
"14 308 OFFCURVE",
"51 281 OFFCURVE",
"77 281 CURVE SMOOTH",
"111 281 OFFCURVE",
"152 320 OFFCURVE",
"187 353 CURVE",
"187 353 OFFCURVE",
"184 349 OFFCURVE",
"184 349 CURVE",
"184 349 LINE"
);
}
);
width = 516;
}
);
unicode = 201D;
},
{
glyphname = quoteleft;
lastChange = "2019-03-20 22:31:53 +0000";
layers = (
{
hints = (
{
place = "{23, 222}";
type = Stem;
},
{
horizontal = 1;
place = "{266, 456}";
type = Stem;
}
);
layerId = UUID0;
paths = (
{
closed = 1;
nodes = (
"40 527 OFFCURVE",
"43 414 OFFCURVE",
"112 319 CURVE SMOOTH",
"130 293 OFFCURVE",
"150 266 OFFCURVE",
"180 266 CURVE SMOOTH",
"221 266 OFFCURVE",
"245 302 OFFCURVE",
"245 325 CURVE SMOOTH",
"245 343 OFFCURVE",
"238 360 OFFCURVE",
"227 378 CURVE SMOOTH",
"175 461 OFFCURVE",
"155 551 OFFCURVE",
"150 646 CURVE SMOOTH",
"148 686 OFFCURVE",
"131 722 OFFCURVE",
"83 722 CURVE SMOOTH",
"46 722 OFFCURVE",
"24 689 OFFCURVE",
"23 633 CURVE",
"23 633 LINE"
);
}
);
width = 316;
}
);
unicode = 2018;
},
{
glyphname = quoteright;
lastChange = "2019-03-20 22:31:53 +0000";
layers = (
{
hints = (
{
place = "{107, 129}";
type = Stem;
},
{
horizontal = 1;
place = "{280, 418}";
type = Stem;
}
);
layerId = UUID0;
paths = (
{
closed = 1;
nodes = (
"234 416 OFFCURVE",
"236 494 OFFCURVE",
"236 567 CURVE SMOOTH",
"236 623 LINE SMOOTH",
"236 660 OFFCURVE",
"220 698 OFFCURVE",
"171 698 CURVE SMOOTH",
"107 698 OFFCURVE",
"106 638 OFFCURVE",
"106 590 CURVE SMOOTH",
"106 573 OFFCURVE",
"107 557 OFFCURVE",
"107 540 CURVE SMOOTH",
"107 486 OFFCURVE",
"105 434 OFFCURVE",
"63 390 CURVE SMOOTH",
"49 375 OFFCURVE",
"39 357 OFFCURVE",
"39 340 CURVE SMOOTH",
"39 306 OFFCURVE",
"79 280 OFFCURVE",
"109 280 CURVE SMOOTH",
"143 280 OFFCURVE",
"192 310 OFFCURVE",
"209 349 CURVE",
"209 349 LINE"
);
}
);
width = 277;
}
);
unicode = 2019;
},
{
glyphname = quotedbl;
lastChange = "2019-03-20 22:31:53 +0000";
layers = (
{
hints = (
{
place = "{62, 140}";
type = Stem;
},
{
place = "{293, 134}";
type = Stem;
},
{
horizontal = 1;
place = "{356, 361}";
type = Stem;
}
);
layerId = UUID0;
paths = (
{
closed = 1;
nodes = (
"70 463 OFFCURVE",
"62 356 OFFCURVE",
"156 356 CURVE SMOOTH",
"174 356 OFFCURVE",
"200 385 OFFCURVE",
"201 410 CURVE SMOOTH",
"202 436 OFFCURVE",
"202 463 OFFCURVE",
"202 489 CURVE SMOOTH",
"202 542 OFFCURVE",
"201 595 OFFCURVE",
"201 647 CURVE SMOOTH",
"201 685 OFFCURVE",
"188 717 OFFCURVE",
"141 717 CURVE SMOOTH",
"72 717 OFFCURVE",
"74 601 OFFCURVE",
"62 502 CURVE",
"62 502 LINE"
);
},
{
closed = 1;
nodes = (
"335 693 OFFCURVE",
"293 600 OFFCURVE",
"293 495 CURVE SMOOTH",
"293 420 OFFCURVE",
"320 370 OFFCURVE",
"376 370 CURVE SMOOTH",
"395 370 OFFCURVE",
"427 398 OFFCURVE",
"427 428 CURVE SMOOTH",
"427 451 OFFCURVE",
"425 474 OFFCURVE",
"425 496 CURVE SMOOTH",
"425 545 OFFCURVE",
"430 592 OFFCURVE",
"455 640 CURVE SMOOTH",
"459 647 OFFCURVE",
"460 654 OFFCURVE",
"460 661 CURVE SMOOTH",
"460 689 OFFCURVE",
"433 713 OFFCURVE",
"402 713 CURVE SMOOTH",
"396 713 LINE"
);
}
);
width = 520;
}
);
unicode = 0022;
},
{
glyphname = quotesingle;
lastChange = "2019-03-20 22:31:53 +0000";
layers = (
{
hints = (
{
place = "{57, 125}";
type = Stem;
},
{
horizontal = 1;
place = "{365, 341}";
type = Stem;
}
);
layerId = UUID0;
paths = (
{
closed = 1;
nodes = (
"122 705 OFFCURVE",
"114 706 OFFCURVE",
"107 706 CURVE SMOOTH",
"78 706 OFFCURVE",
"52 687 OFFCURVE",
"52 659 CURVE SMOOTH",
"52 640 OFFCURVE",
"57 620 OFFCURVE",
"57 602 CURVE SMOOTH",
"57 552 OFFCURVE",
"42 505 OFFCURVE",
"20 438 CURVE SMOOTH",
"19 434 OFFCURVE",
"18 430 OFFCURVE",
"18 426 CURVE SMOOTH",
"18 390 OFFCURVE",
"38 365 OFFCURVE",
"72 365 CURVE SMOOTH",
"143 365 OFFCURVE",
"182 465 OFFCURVE",
"182 570 CURVE SMOOTH",
"182 638 OFFCURVE",
"166 673 OFFCURVE",
"130 702 CURVE",
"130 702 LINE"
);
}
);
width = 227;
}
);
unicode = 0027;
},
{
glyphname = .notdef;
lastChange = "2019-03-20 22:31:53 +0000";
layers = (
{
hints = (
{
place = "{70, 72}";
type = Stem;
},
{
place = "{567, 70}";
type = Stem;
},
{
horizontal = 1;
place = "{0, 70}";
type = Stem;
},
{
horizontal = 1;
place = "{685, 70}";
type = Stem;
}
);
layerId = UUID0;
paths = (
{
closed = 1;
nodes = (
"637 0 LINE",
"637 755 LINE",
"70 755 LINE",
"70 0 LINE"
);
},
{
closed = 1;
nodes = (
"142 685 LINE",
"567 685 LINE",
"567 70 LINE",
"142 70 LINE"
);
}
);
width = 709;
}
);
},
{
glyphname = dollar;
lastChange = "2019-03-20 22:31:53 +0000";
layers = (
{
hints = (
{
place = "{54, 136}";
type = Stem;
},
{
place = "{309, 136}";
type = Stem;
},
{
horizontal = 1;
place = "{-85, 139}";
type = Stem;
},
{
horizontal = 1;
place = "{493, 187}";
type = Stem;
}
);
layerId = UUID0;
paths = (
{
closed = 1;
nodes = (
"323 497 OFFCURVE",
"332 434 OFFCURVE",
"363 434 CURVE SMOOTH",
"390 434 OFFCURVE",
"405 465 OFFCURVE",
"402 506 CURVE SMOOTH",
"397 558 OFFCURVE",
"365 590 OFFCURVE",
"325 607 CURVE",
"330 638 OFFCURVE",
"333 648 OFFCURVE",
"332 664 CURVE SMOOTH",
"330 692 OFFCURVE",
"312 723 OFFCURVE",
"268 723 CURVE SMOOTH",
"226 722 OFFCURVE",
"210 672 OFFCURVE",
"198 612 CURVE",
"113 586 OFFCURVE",
"48 502 OFFCURVE",
"55 413 CURVE SMOOTH",
"67 263 OFFCURVE",
"323 202 OFFCURVE",
"331 102 CURVE SMOOTH",
"333 77 OFFCURVE",
"314 54 OFFCURVE",
"278 53 CURVE SMOOTH",
"254 53 OFFCURVE",
"217 61 OFFCURVE",
"195 70 CURVE SMOOTH",
"160 85 OFFCURVE",
"144 110 OFFCURVE",
"110 109 CURVE SMOOTH",
"67 109 OFFCURVE",
"48 88 OFFCURVE",
"51 55 CURVE SMOOTH",
"56 0 OFFCURVE",
"125 -47 OFFCURVE",
"196 -70 CURVE",
"198 -92 LINE SMOOTH",
"204 -167 OFFCURVE",
"235 -217 OFFCURVE",
"291 -217 CURVE SMOOTH",
"310 -216 OFFCURVE",
"340 -188 OFFCURVE",
"338 -158 CURVE SMOOTH",
"336 -135 OFFCURVE",
"332 -112 OFFCURVE",
"330 -90 CURVE SMOOTH",
"329 -78 LINE",
"413 -57 OFFCURVE",
"475 12 OFFCURVE",
"468 95 CURVE SMOOTH",
"462 166 OFFCURVE",
"430 202 OFFCURVE",
"350 276 CURVE SMOOTH",
"285 336 OFFCURVE",
"195 366 OFFCURVE",
"191 414 CURVE SMOOTH",
"187 465 OFFCURVE",
"228 502 OFFCURVE",
"272 503 CURVE SMOOTH",
"272 503 LINE"
);
}
);
width = 475;
}
);
unicode = 0024;
},
{
glyphname = plus;
lastChange = "2019-03-20 22:31:53 +0000";
layers = (
{
layerId = UUID0;
paths = (
{
closed = 1;
nodes = (
"486 196 OFFCURVE",
"528 200 OFFCURVE",
"570 208 CURVE",
"608 212 OFFCURVE",
"640 233 OFFCURVE",
"640 273 CURVE SMOOTH",
"640 325 OFFCURVE",
"603 336 OFFCURVE",
"570 336 CURVE SMOOTH",
"564 336 OFFCURVE",
"557 335 OFFCURVE",
"551 335 CURVE SMOOTH",
"500 331 OFFCURVE",
"461 328 OFFCURVE",
"381 323 CURVE",
"365 399 OFFCURVE",
"359 411 OFFCURVE",
"346 453 CURVE",
"336 490 OFFCURVE",
"311 518 OFFCURVE",
"271 513 CURVE",
"220 505 OFFCURVE",
"215 468 OFFCURVE",
"219 434 CURVE",
"223 416 LINE",
"245 316 LINE",
"172 312 OFFCURVE",
"132 307 OFFCURVE",
"84 305 CURVE SMOOTH",
"47 303 OFFCURVE",
"13 291 OFFCURVE",
"13 258 CURVE SMOOTH",
"13 233 OFFCURVE",
"45 196 OFFCURVE",
"71 189 CURVE SMOOTH",
"120 176 OFFCURVE",
"144 181 OFFCURVE",
"214 176 CURVE",
"273 181 LINE",
"313 18 LINE SMOOTH",
"322 -18 OFFCURVE",
"337 -46 OFFCURVE",
"369 -46 CURVE SMOOTH",
"396 -46 OFFCURVE",
"426 -5 OFFCURVE",
"429 21 CURVE SMOOTH",
"431 36 OFFCURVE",
"431 48 OFFCURVE",
"431 60 CURVE SMOOTH",
"431 107 OFFCURVE",
"420 149 OFFCURVE",
"410 190 CURVE",
"410 190 LINE"
);
}
);
width = 651;
}
);
unicode = 002B;
},
{
glyphname = equal;
lastChange = "2019-03-20 22:31:53 +0000";
layers = (
{
layerId = UUID0;
paths = (
{
closed = 1;
nodes = (
"371 99 OFFCURVE",
"459 110 OFFCURVE",
"501 118 CURVE",
"539 122 OFFCURVE",
"571 143 OFFCURVE",
"571 183 CURVE SMOOTH",
"571 235 OFFCURVE",
"534 246 OFFCURVE",
"501 246 CURVE SMOOTH",
"437 246 OFFCURVE",
"374 237 OFFCURVE",
"312 233 CURVE",
"239 229 OFFCURVE",
"133 219 OFFCURVE",
"85 217 CURVE SMOOTH",
"48 215 OFFCURVE",
"14 203 OFFCURVE",
"14 170 CURVE SMOOTH",
"14 145 OFFCURVE",
"46 108 OFFCURVE",
"72 101 CURVE SMOOTH",
"94 95 OFFCURVE",
"111 94 OFFCURVE",
"130 94 CURVE",
"180 94 OFFCURVE",
"214 96 OFFCURVE",
"232 96 CURVE SMOOTH",
"295 97 LINE"
);
},
{
closed = 1;
nodes = (
"353 356 OFFCURVE",
"425 363 OFFCURVE",
"467 371 CURVE",
"505 375 OFFCURVE",
"537 396 OFFCURVE",
"537 436 CURVE SMOOTH",
"537 488 OFFCURVE",
"500 499 OFFCURVE",
"467 499 CURVE SMOOTH",
"461 499 OFFCURVE",
"454 498 OFFCURVE",
"448 498 CURVE SMOOTH",
"397 494 OFFCURVE",
"336 495 OFFCURVE",
"256 490 CURVE SMOOTH",
"183 486 OFFCURVE",
"138 484 OFFCURVE",
"90 482 CURVE SMOOTH",
"53 480 OFFCURVE",
"19 468 OFFCURVE",
"19 435 CURVE SMOOTH",
"19 410 OFFCURVE",
"51 373 OFFCURVE",
"77 366 CURVE SMOOTH",
"113 356 OFFCURVE",
"136 351 OFFCURVE",
"174 351 CURVE SMOOTH",
"187 351 OFFCURVE",
"202 353 OFFCURVE",
"220 353 CURVE SMOOTH",
"277 354 LINE"
);
}
);
width = 591;
}
);
unicode = 003D;
},
{
glyphname = percent;
lastChange = "2019-03-20 22:31:53 +0000";
layers = (
{
hints = (
{
place = "{60, 177}";
type = Stem;
},
{
place = "{456, 196}";
type = Stem;
},
{
horizontal = 1;
place = "{-53, 21}";
target = up;
type = BottomGhost;
},
{
horizontal = 1;
place = "{8, 193}";
type = Stem;
},
{
horizontal = 1;
place = "{472, 178}";
type = Stem;
}
);
layerId = UUID0;
paths = (
{
closed = 1;
nodes = (
"456 343 OFFCURVE",
"561 500 OFFCURVE",
"561 600 CURVE SMOOTH",
"561 642 OFFCURVE",
"540 671 OFFCURVE",
"496 671 CURVE SMOOTH",
"455 671 OFFCURVE",
"446 638 OFFCURVE",
"435 600 CURVE SMOOTH",
"421 554 OFFCURVE",
"384 473 OFFCURVE",
"359 435 CURVE SMOOTH",
"261 286 OFFCURVE",
"239 249 OFFCURVE",
"139 101 CURVE SMOOTH",
"120 73 OFFCURVE",
"87 39 OFFCURVE",
"87 8 CURVE SMOOTH",
"87 -29 OFFCURVE",
"107 -53 OFFCURVE",
"141 -53 CURVE SMOOTH",
"187 -53 OFFCURVE",
"203 -34 OFFCURVE",
"226 -1 CURVE SMOOTH",
"311 118 OFFCURVE",
"319 124 OFFCURVE",
"398 246 CURVE",
"398 246 LINE"
);
},
{
closed = 1;
nodes = (
"612 193 OFFCURVE",
"594 201 OFFCURVE",
"574 201 CURVE SMOOTH",
"512 201 OFFCURVE",
"456 149 OFFCURVE",
"456 98 CURVE SMOOTH",
"456 46 OFFCURVE",
"494 8 OFFCURVE",
"553 8 CURVE SMOOTH",
"604 8 OFFCURVE",
"652 51 OFFCURVE",
"652 108 CURVE SMOOTH",
"652 134 OFFCURVE",
"642 160 OFFCURVE",
"623 181 CURVE SMOOTH",
"623 181 LINE"
);
},
{
closed = 1;
nodes = (
"235 548 OFFCURVE",
"237 564 OFFCURVE",
"237 572 CURVE SMOOTH",
"237 615 OFFCURVE",
"201 645 OFFCURVE",
"153 650 CURVE",
"99 650 OFFCURVE",
"60 620 OFFCURVE",
"60 565 CURVE SMOOTH",
"60 504 OFFCURVE",
"105 472 OFFCURVE",
"147 472 CURVE SMOOTH",
"185 472 OFFCURVE",
"222 497 OFFCURVE",
"231 548 CURVE",
"231 548 LINE"
);
}
);
width = 689;
}
);
unicode = 0025;
},
{
glyphname = at;
lastChange = "2019-03-20 22:31:53 +0000";
layers = (
{
layerId = UUID0;
paths = (
{
closed = 1;
nodes = (
"575 171 OFFCURVE",
"540 120 OFFCURVE",
"427 77 CURVE",
"424 85 OFFCURVE",
"424 98 OFFCURVE",
"424 106 CURVE SMOOTH",
"424 185 OFFCURVE",
"484 235 OFFCURVE",
"613 294 CURVE",
"613 294 LINE"
);
},
{
closed = 1;
nodes = (
"1053 -140 OFFCURVE",
"1072 -53 OFFCURVE",
"1072 38 CURVE SMOOTH",
"1072 396 OFFCURVE",
"939 690 OFFCURVE",
"533 690 CURVE",
"298 690 OFFCURVE",
"61 597 OFFCURVE",
"61 225 CURVE SMOOTH",
"61 192 OFFCURVE",
"63 156 OFFCURVE",
"67 117 CURVE SMOOTH",
"101 -212 OFFCURVE",
"386 -275 OFFCURVE",
"482 -275 CURVE SMOOTH",
"633 -275 OFFCURVE",
"723 -185 OFFCURVE",
"742 -161 CURVE SMOOTH",
"753 -147 OFFCURVE",
"756 -136 OFFCURVE",
"756 -123 CURVE",
"753 -97 OFFCURVE",
"734 -81 OFFCURVE",
"709 -81 CURVE SMOOTH",
"703 -81 OFFCURVE",
"621 -159 OFFCURVE",
"482 -159 CURVE SMOOTH",
"353 -159 OFFCURVE",
"176 -102 OFFCURVE",
"176 217 CURVE SMOOTH",
"176 537 OFFCURVE",
"483 579 OFFCURVE",
"546 579 CURVE SMOOTH",
"772 579 OFFCURVE",
"910 421 OFFCURVE",
"939 237 CURVE",
"943 196 OFFCURVE",
"956 112 OFFCURVE",
"956 52 CURVE SMOOTH",
"956 14 OFFCURVE",
"951 -13 OFFCURVE",
"936 -13 CURVE SMOOTH",
"871 -13 OFFCURVE",
"746 344 OFFCURVE",
"723 414 CURVE SMOOTH",
"712 445 OFFCURVE",
"680 520 OFFCURVE",
"630 520 CURVE",
"586 520 OFFCURVE",
"571 488 OFFCURVE",
"568 444 CURVE",
"568 432 LINE",
"402 353 OFFCURVE",
"275 244 OFFCURVE",
"275 101 CURVE SMOOTH",
"275 7 OFFCURVE",
"337 -57 OFFCURVE",
"427 -57 CURVE SMOOTH",
"572 -57 OFFCURVE",
"620 9 OFFCURVE",
"686 140 CURVE",
"724 49 OFFCURVE",
"799 -140 OFFCURVE",
"974 -140 CURVE SMOOTH",
"974 -140 LINE"
);
}
);
width = 1133;
}
);
unicode = 0040;
},
{
glyphname = ampersand;
lastChange = "2019-03-20 22:31:53 +0000";
layers = (
{
layerId = UUID0;
paths = (
{
closed = 1;
nodes = (
"505 263 OFFCURVE",
"488 219 OFFCURVE",
"462 175 CURVE",
"418 211 OFFCURVE",
"377 250 OFFCURVE",
"340 290 CURVE",
"389 372 OFFCURVE",
"449 443 OFFCURVE",
"449 519 CURVE SMOOTH",
"449 639 OFFCURVE",
"350 661 OFFCURVE",
"261 661 CURVE SMOOTH",
"147 661 OFFCURVE",
"78 609 OFFCURVE",
"78 515 CURVE SMOOTH",
"78 422 OFFCURVE",
"109 376 OFFCURVE",
"144 306 CURVE",
"106 247 OFFCURVE",
"60 190 OFFCURVE",
"60 124 CURVE SMOOTH",
"60 114 OFFCURVE",
"61 104 OFFCURVE",
"63 94 CURVE SMOOTH",
"91 -38 OFFCURVE",
"205 -55 OFFCURVE",
"312 -55 CURVE SMOOTH",
"355 -55 OFFCURVE",
"442 -53 OFFCURVE",
"502 -10 CURVE",
"569 -67 LINE SMOOTH",
"581 -78 OFFCURVE",
"609 -89 OFFCURVE",
"635 -89 CURVE SMOOTH",
"674 -89 OFFCURVE",
"680 -53 OFFCURVE",
"680 -34 CURVE SMOOTH",
"680 -7 OFFCURVE",
"644 25 OFFCURVE",
"567 89 CURVE",
"583 131 OFFCURVE",
"600 181 OFFCURVE",
"600 208 CURVE SMOOTH",
"600 250 OFFCURVE",
"552 263 OFFCURVE",
"519 263 CURVE",
"519 263 LINE"
);
},
{
closed = 1;
nodes = (
"245 57 OFFCURVE",
"210 69 OFFCURVE",
"210 111 CURVE SMOOTH",
"210 135 OFFCURVE",
"234 175 OFFCURVE",
"250 202 CURVE",
"390 82 LINE",
"361 61 OFFCURVE",
"332 57 OFFCURVE",
"300 57 CURVE SMOOTH",
"300 57 LINE"
);
},
{
closed = 1;
nodes = (
"219 453 OFFCURVE",
"208 468 OFFCURVE",
"208 492 CURVE SMOOTH",
"208 518 OFFCURVE",
"235 547 OFFCURVE",
"265 547 CURVE SMOOTH",
"284 547 OFFCURVE",
"315 546 OFFCURVE",
"315 524 CURVE SMOOTH",
"315 499 OFFCURVE",
"275 455 OFFCURVE",
"250 410 CURVE",
"250 410 LINE"
);
}
);
width = 633;
}
);
unicode = 0026;
},
